<?xml version="1.0" encoding="utf-8"?>
<!-- Generator: Adobe Illustrator 20.1.0, SVG Export Plug-In . SVG Version: 6.00 Build 0)  -->
<svg version="1.1" id="XMLID_1_" xmlns="http://www.w3.org/2000/svg" xmlns:xlink="http://www.w3.org/1999/xlink" x="0px" y="0px"
	 viewBox="0 0 1080 1080" enable-background="new 0 0 1080 1080" xml:space="preserve">
<g id="_x31_810">
	<rect fill="none" width="1080" height="1080"/>
	<path fill="#FFFFFF" d="M299.0366,505.2958V243.6949H250v-82.6391l75.4002-34.7399h108.6186v378.9799H299.0366z"/>
	<path fill="#FFFFFF" d="M472.5081,401.0769c0-20.5289,5.729-65.796,60.1551-90.0078
		c-32.0827-22.1071-46.4052-43.1624-46.4052-85.2711c0-49.4774,48.1238-105.798,164.9962-105.798
		c113.4346,0,164.9962,56.3207,164.9962,105.798c0,37.8984-17.187,66.8478-46.405,85.2711
		c54.4258,24.2118,60.1548,62.6366,60.1548,83.1645c0,72.1119-61.8737,117.379-178.746,117.379S472.5081,473.1879,472.5081,401.0769
		z M619.7444,245.2732c0,18.4232,20.6247,22.1071,46.405,28.424c9.7397-11.58,16.6146-15.7912,16.6146-28.424
		c0-12.6318-14.8957-21.5807-31.5098-21.5807C633.4942,223.6924,619.7444,232.6413,619.7444,245.2732z M620.3173,382.6537
		c0,20.0015,18.3329,23.1599,31.5098,23.1599c13.1769,0,31.5098-3.1584,31.5098-23.1599c0-12.6328-29.7914-17.8959-52.1345-23.16
		C623.1816,366.337,620.3173,372.6529,620.3173,382.6537z"/>
	<path fill="#FFFFFF" d="M299.0366,953.6831V692.0823H250v-82.639l75.4002-34.7399h108.6186v378.9798H299.0366z"/>
	<path fill="#FFFFFF" d="M651.2542,568.3874C793.091,568.3874,830,671.027,830,764.1932S793.091,960,651.2542,960
		c-141.8366,0-178.7458-102.6406-178.7458-195.8068S509.4175,568.3874,651.2542,568.3874z M651.2542,842.621
		c32.1641,0,40.0729-21.0543,40.0729-78.4279c0-57.3735-7.9088-77.9014-40.0729-77.9014c-32.1636,0-40.0729,20.5279-40.0729,77.9014
		C611.1813,821.5667,619.0906,842.621,651.2542,842.621z"/>
</g>
</svg>
