<?xml version="1.0" encoding="utf-8"?>
<!-- Generator: Adobe Illustrator 20.1.0, SVG Export Plug-In . SVG Version: 6.00 Build 0)  -->
<svg version="1.1" id="XMLID_1_" xmlns="http://www.w3.org/2000/svg" xmlns:xlink="http://www.w3.org/1999/xlink" x="0px" y="0px"
	 viewBox="0 0 931.1953 446.876" enable-background="new 0 0 931.1953 446.876" xml:space="preserve">
<g id="english-language-kanji">
	<g>
		<path fill="#000032" d="M445.4355,302.877H254.3975c34.0791,64.3198,100.7988,101.2793,196.3174,114.7192
			c-7.1992,7.1997-15.8398,20.1597-20.6387,29.2798c-98.8789-17.7598-166.5586-59.5195-204.4785-133.9189
			C204.957,366.2363,151.6777,414.2363,19.1992,446.876C15.3594,439.6758,6.7197,426.7158,0,419.9961
			c127.1982-29.2798,176.1582-71.5195,194.3984-117.1191H1.9199v-30.7197h57.5996V150.2383H204.957v-48.4795l42.2402,2.3999
			c-0.4805,3.3604-3.3594,5.7603-9.5996,6.7202v39.3594h153.1182v121.9189h54.7197V302.877z M120.4785,128.6387V78.2393H10.0801
			V48.4795h110.3984V0l41.2793,2.3999c-0.4795,3.3599-3.3594,5.7598-9.5996,6.7197v39.3599h141.5986V0l41.2803,2.3999
			c-0.4805,3.8398-2.8809,5.7598-9.6006,6.7197v39.3599h113.2793v29.7598H325.4365v50.3994h-31.6797V78.2393H152.1582v50.3994
			H120.4785z M90.7188,272.1572h111.8389c1.9199-12.4795,2.3994-24.4795,2.3994-36.9595v-56.1597H90.7188V272.1572z
			 M358.0762,179.0381H237.5977v56.1597c0,12.48-0.4805,24.96-1.9199,36.9595h122.3984V179.0381z"/>
		<path fill="#000032" d="M480,109.439V82.0791h176.1582v27.3599H480z M640.7988,281.7573V422.876H530.3984v22.5601h-28.3193
			V281.7573H640.7988z M639.3574,149.2783v26.3999H502.5596v-26.3999H639.3574z M502.5596,241.9175v-26.3994h136.7979v26.3994
			H502.5596z M637.918,17.2798v26.3999H505.4395V17.2798H637.918z M611.998,309.1172h-81.5996v86.3989h81.5996V309.1172z
			 M883.1963,202.5581h47.999v29.2798H657.5977v-29.2798h65.7598c4.3203-21.1201,9.1201-46.0796,13.9199-72.4795h-52.7998v-28.7998
			h57.5996c2.8799-18.2397,5.7598-36.9595,8.6396-53.7593h-75.8389V18.7197h238.5576v28.7998H781.917l-8.1602,53.7593h109.4395
			V202.5581z M695.5176,446.396V271.6772h202.0781v171.8384h-31.1992v-19.1997H726.2373v22.0801H695.5176z M866.3965,300.957
			H726.2373v93.5991h140.1592V300.957z M851.9961,130.0786H768.957c-4.3203,25.9199-9.1201,51.3594-13.4395,72.4795h96.4785
			V130.0786z"/>
	</g>
</g>
</svg>
