<?xml version="1.0" encoding="utf-8"?>
<!-- Generator: Adobe Illustrator 20.1.0, SVG Export Plug-In . SVG Version: 6.00 Build 0)  -->
<svg version="1.1" id="XMLID_2_" xmlns="http://www.w3.org/2000/svg" xmlns:xlink="http://www.w3.org/1999/xlink" x="0px" y="0px"
	 viewBox="0 0 1920 281.3818" enable-background="new 0 0 1920 281.3818" xml:space="preserve">
<g id="i18n-count">
	<path fill="#000032" d="M370.9375,276.6631c7,0,10.5-3.292,10.5-9.877c0-6.165-3.5835-9.248-10.7495-9.248
		c-1.8545,0-4.2607,0.2725-7.2188,0.8174l-2.8125-1.7861l1.7183-21.5h21.5493v5.125h-16.6274l-1.2241,13.1543
		c2.228-0.3525,4.4043-0.5293,6.5283-0.5293c4.3726,0,7.9072,1.1797,10.604,3.5391c2.6963,2.3594,4.0449,5.8037,4.0449,10.333
		s-1.4272,8.1113-4.2812,10.7422c-2.8545,2.6328-6.7607,3.9482-11.7188,3.9482c-4.9585,0-8.8125-0.8018-11.5625-2.4053v-5.333
		C362.6875,275.6562,366.4375,276.6631,370.9375,276.6631z"/>
	<path fill="#000032" d="M259,270.4443h-6.7812v10.3125h-5.375v-10.3125h-21.25v-4.9092l20.75-30.7158h5.875v30.5H259V270.4443z
		 M246.8438,265.3193v-11.125c0-3.667,0.1343-8.167,0.4033-13.5h-0.2812c-0.748,2.125-1.6846,4-2.8096,5.625l-12.8438,19H246.8438z"
		/>
	<path fill="#000032" d="M126.25,267.7871c0,4.2197-1.4272,7.541-4.2812,9.9629c-2.8545,2.4219-6.9062,3.6318-12.1562,3.6318
		s-9.3857-0.8115-12.4062-2.4365v-5.293c3.833,2.0078,7.8228,3.0107,11.9688,3.0107c7.375,0,11.0625-3.0215,11.0625-9.0645
		c0-5.3945-3.9766-8.0918-11.9292-8.0918h-4.1646v-4.7188h4.165c3.3403,0,5.9292-0.791,7.7666-2.374
		c1.8369-1.582,2.7559-3.5674,2.7559-5.957c0-2.3887-0.7085-4.207-2.125-5.4551c-1.417-1.2461-3.3125-1.8701-5.6875-1.8701
		c-3.7085,0-7.292,1.2686-10.75,3.8037l-2.875-3.9258c3.8955-3.0645,8.4375-4.5967,13.625-4.5967
		c4.2915,0,7.6353,1.0127,10.0312,3.0361c2.3955,2.0234,3.5938,4.6279,3.5938,7.8135s-0.8545,5.751-2.5625,7.6973
		c-1.7085,1.9463-4.146,3.1904-7.3125,3.7344v0.1875C122.4893,257.8633,126.25,261.499,126.25,267.7871z"/>
	<path fill="#000032" d="M508.7812,239.1318c-4.667,0-8.1719,1.4668-10.5156,4.3994c-2.3438,2.9336-3.6201,7.582-3.8281,13.9473
		h0.375c1.958-3.418,5.0625-5.1279,9.3125-5.1279s7.5049,1.21,9.7656,3.6299c2.2603,2.4199,3.3906,5.8965,3.3906,10.4316
		s-1.2344,8.1641-3.7031,10.8867s-5.8906,4.083-10.2656,4.083s-7.917-1.7539-10.625-5.2617
		c-2.7085-3.5078-4.0625-8.4678-4.0625-14.8799c0-17.8848,6.6562-26.8271,19.9688-26.8271c2.1475,0,3.9238,0.2002,5.3281,0.5986
		v4.8789C512.4561,239.3848,510.7422,239.1318,508.7812,239.1318z M509.6719,273.9199c1.4893-1.8281,2.2344-4.3516,2.2344-7.5703
		s-0.7139-5.6426-2.1406-7.2725c-1.4272-1.6299-3.4639-2.4453-6.1094-2.4453c-2.646,0-4.8647,0.8467-6.6562,2.5391
		c-1.792,1.6924-2.6875,3.626-2.6875,5.7998c0,3.1758,0.8438,5.9199,2.5312,8.2285c1.6875,2.3096,3.875,3.4639,6.5625,3.4639
		S508.1821,275.749,509.6719,273.9199z"/>
	<path fill="#000032" d="M618.7812,240.1943v-5.125h29.375v4.4766l-17.3438,41.2109H624.75l17.5938-40.5625H618.7812z"/>
	<path fill="#000032" d="M778.5625,268.8438c0,3.7734-1.3281,6.8066-3.9834,9.0996c-2.6558,2.293-6.187,3.4385-10.5942,3.4385
		s-7.8921-1.0791-10.4541-3.2354c-2.5625-2.1582-3.8433-5.1758-3.8433-9.0527c0-5.3574,2.9775-9.4551,8.9336-12.291
		c-4.9766-3.0439-7.4648-6.8906-7.4648-11.541c0-3.3457,1.2334-6.001,3.7012-7.9648c2.4673-1.9639,5.5825-2.9463,9.3452-2.9463
		s6.8521,0.9873,9.2676,2.9619s3.6235,4.6445,3.6235,8.0117c0,4.7969-2.769,8.5391-8.3066,11.2285
		C775.3037,259.8887,778.5625,263.9863,778.5625,268.8438z M755.375,269.1562c0,5.0049,2.8696,7.5068,8.6099,7.5068
		c2.8281,0,5.0166-0.6826,6.5659-2.0479c1.5493-1.3662,2.3242-3.1328,2.3242-5.3018s-0.6553-3.9717-1.9653-5.4111
		c-1.3101-1.4375-3.5352-2.9297-6.6753-4.4727l-0.9355-0.4375C758.0161,261.5156,755.375,264.9033,755.375,269.1562z
		 M771.4062,245.543c0-2.1055-0.6553-3.7109-1.9648-4.8164c-1.3096-1.1045-3.0869-1.6572-5.332-1.6572s-4.0176,0.5479-5.3169,1.6416
		c-1.2993,1.0957-1.9487,2.6436-1.9487,4.6445c0,2.002,0.5142,3.6543,1.5435,4.958c1.0288,1.3037,2.957,2.6113,5.7847,3.9248
		C768.9946,252.0908,771.4062,249.1924,771.4062,245.543z"/>
	<path fill="#000032" d="M889.6304,276.6631c4.6748,0,8.1865-1.4639,10.5347-4.3916c2.3477-2.9277,3.626-7.5703,3.835-13.9248
		h-0.3755c-2.0039,3.4189-5.124,5.1289-9.3608,5.1289s-7.4858-1.2002-9.7471-3.6006s-3.3916-5.8818-3.3916-10.4453
		c0-4.5625,1.2295-8.2061,3.689-10.9297c2.4595-2.7246,5.9014-4.0869,10.3262-4.0869c4.4243,0,7.9756,1.7803,10.6543,5.3389
		s4.0181,8.4902,4.0181,14.7959c0,17.8896-6.665,26.834-19.9941,26.834c-2.1709,0-3.9492-0.1904-5.334-0.5693v-4.9375
		C885.8691,276.4004,887.5845,276.6631,889.6304,276.6631z M888.7227,241.8789c-1.4819,1.832-2.2227,4.3594-2.2227,7.582
		c0,3.2246,0.7148,5.6523,2.1445,7.2852s3.4697,2.4482,6.1201,2.4482s4.873-0.8525,6.668-2.5586s2.6924-3.6367,2.6924-5.793
		c0-3.1602-0.8403-5.9023-2.52-8.2256c-1.6802-2.3232-3.877-3.4854-6.5898-3.4854
		C892.3018,239.1318,890.2041,240.0479,888.7227,241.8789z"/>
	<path fill="#000032" d="M1009.1719,280.7568h-5.375v-28.5312c0-2.542,0.0811-6.3018,0.2441-11.2812
		c-0.8086,0.8955-2.0674,2.0732-3.7754,3.5312l-4.5938,3.7812l-3.0312-3.8438l11.9502-9.3438h4.5811V280.7568z"/>
	<path fill="#000032" d="M1043.1562,281.3818c-4.7764,0-8.3945-2.0059-10.8555-6.0186s-3.6914-9.8135-3.6914-17.4033
		c0-15.7393,4.8486-23.6094,14.5469-23.6094c4.8486,0,8.5117,2.0254,10.9883,6.0752s3.7148,9.8945,3.7148,17.5342
		C1057.8594,273.5742,1052.958,281.3818,1043.1562,281.3818z M1036.5273,272.3008c1.4043,2.9082,3.624,4.3623,6.6602,4.3623
		s5.2715-1.4639,6.707-4.3936c1.4346-2.9297,2.1523-7.6895,2.1523-14.2783s-0.7178-11.3477-2.1523-14.2773
		c-1.4355-2.9297-3.6709-4.3945-6.707-4.3945s-5.2559,1.4541-6.6602,4.3633s-2.1055,7.6787-2.1055,14.3086
		C1034.4219,264.6221,1035.123,269.3916,1036.5273,272.3008z"/>
	<path fill="#000032" d="M1137.6719,280.7568h-5.375v-28.5312c0-2.542,0.0811-6.3018,0.2441-11.2812
		c-0.8086,0.8955-2.0674,2.0732-3.7754,3.5312l-4.5938,3.7812l-3.0312-3.8438l11.9502-9.3438h4.5811V280.7568z"/>
	<path fill="#000032" d="M1176.0781,280.7568h-5.375v-28.5312c0-2.542,0.0811-6.3018,0.2441-11.2812
		c-0.8086,0.8955-2.0674,2.0732-3.7754,3.5312l-4.5938,3.7812l-3.0312-3.8438l11.9502-9.3438h4.5811V280.7568z"/>
	<path fill="#000032" d="M1267.1719,280.7568h-5.375v-28.5312c0-2.542,0.0811-6.3018,0.2441-11.2812
		c-0.8086,0.8955-2.0674,2.0732-3.7754,3.5312l-4.5938,3.7812l-3.0312-3.8438l11.9502-9.3438h4.5811V280.7568z"/>
	<path fill="#000032" d="M1315.4219,280.7568h-28.4375v-4.8164l10.9219-11.9551c4.0557-4.4561,6.7285-7.7705,8.0186-9.9463
		s1.9346-4.5195,1.9346-7.0293c0-2.5117-0.6621-4.4512-1.9844-5.8223c-1.3232-1.3701-3.1094-2.0557-5.3594-2.0557
		c-3.334,0-6.6465,1.4336-9.9375,4.2998l-3.1875-3.7344c4-3.5234,8.3955-5.2842,13.1875-5.2842c4.041,0,7.2344,1.0986,9.5781,3.2959
		s3.5156,5.1504,3.5156,8.8613c0,2.4902-0.6152,5.043-1.8438,7.6582c-1.2295,2.6152-4.2607,6.5371-9.0938,11.7676l-8.7812,9.3848
		v0.251h21.4688V280.7568z"/>
	<path fill="#000032" d="M1397.6719,280.7568h-5.375v-28.5312c0-2.542,0.0811-6.3018,0.2441-11.2812
		c-0.8086,0.8955-2.0674,2.0732-3.7754,3.5312l-4.5938,3.7812l-3.0312-3.8438l11.9502-9.3438h4.5811V280.7568z"/>
	<path fill="#000032" d="M1445.4531,267.7871c0,4.2197-1.4277,7.541-4.2812,9.9629c-2.8545,2.4219-6.9062,3.6318-12.1562,3.6318
		s-9.3857-0.8115-12.4062-2.4365v-5.293c3.833,2.0078,7.8223,3.0107,11.9688,3.0107c7.375,0,11.0625-3.0215,11.0625-9.0645
		c0-5.3945-3.9766-8.0918-11.9297-8.0918h-4.1641v-4.7188h4.165c3.3408,0,5.9287-0.791,7.7666-2.374
		c1.8369-1.582,2.7559-3.5674,2.7559-5.957c0-2.3887-0.709-4.207-2.125-5.4551c-1.417-1.2461-3.3125-1.8701-5.6875-1.8701
		c-3.709,0-7.292,1.2686-10.75,3.8037l-2.875-3.9258c3.8955-3.0645,8.4375-4.5967,13.625-4.5967
		c4.291,0,7.6348,1.0127,10.0312,3.0361c2.3955,2.0234,3.5938,4.6279,3.5938,7.8135s-0.8545,5.751-2.5625,7.6973
		c-1.709,1.9463-4.1465,3.1904-7.3125,3.7344v0.1875C1441.6924,257.8633,1445.4531,261.499,1445.4531,267.7871z"/>
	<path fill="#000032" d="M1528.6719,280.7568h-5.375v-28.5312c0-2.542,0.0811-6.3018,0.2441-11.2812
		c-0.8086,0.8955-2.0674,2.0732-3.7754,3.5312l-4.5938,3.7812l-3.0312-3.8438l11.9502-9.3438h4.5811V280.7568z"/>
	<path fill="#000032" d="M1578.7031,270.4443h-6.7812v10.3125h-5.375v-10.3125h-21.25v-4.9092l20.75-30.7158h5.875v30.5h6.7812
		V270.4443z M1566.5469,265.3193v-11.125c0-3.667,0.1348-8.167,0.4033-13.5h-0.2812c-0.748,2.125-1.6846,4-2.8096,5.625l-12.8438,19
		H1566.5469z"/>
	<path fill="#000032" d="M1659.1719,280.7568h-5.375v-28.5312c0-2.542,0.0811-6.3018,0.2441-11.2812
		c-0.8086,0.8955-2.0674,2.0732-3.7754,3.5312l-4.5938,3.7812l-3.0312-3.8438l11.9502-9.3438h4.5811V280.7568z"/>
	<path fill="#000032" d="M1690.6406,276.6631c7,0,10.5-3.292,10.5-9.877c0-6.165-3.584-9.248-10.75-9.248
		c-1.8535,0-4.2598,0.2725-7.2188,0.8174l-2.8125-1.7861l1.7188-21.5h21.5488v5.125H1687l-1.2246,13.1543
		c2.2285-0.3525,4.4043-0.5293,6.5293-0.5293c4.3721,0,7.9062,1.1797,10.6035,3.5391c2.6963,2.3594,4.0449,5.8037,4.0449,10.333
		s-1.4277,8.1113-4.2812,10.7422c-2.8545,2.6328-6.7607,3.9482-11.7188,3.9482c-4.959,0-8.8125-0.8018-11.5625-2.4053v-5.333
		C1682.3906,275.6562,1686.1406,276.6631,1690.6406,276.6631z"/>
	<path fill="#000032" d="M1789.6719,280.7568h-5.375v-28.5312c0-2.542,0.0811-6.3018,0.2441-11.2812
		c-0.8086,0.8955-2.0674,2.0732-3.7754,3.5312l-4.5938,3.7812l-3.0312-3.8438l11.9502-9.3438h4.5811V280.7568z"/>
	<path fill="#000032" d="M1829.4844,239.1318c-4.667,0-8.1719,1.4668-10.5156,4.3994c-2.3438,2.9336-3.6201,7.582-3.8281,13.9473
		h0.375c1.958-3.418,5.0625-5.1279,9.3125-5.1279s7.5049,1.21,9.7656,3.6299c2.2598,2.4199,3.3906,5.8965,3.3906,10.4316
		s-1.2344,8.1641-3.7031,10.8867s-5.8906,4.083-10.2656,4.083s-7.917-1.7539-10.625-5.2617
		c-2.709-3.5078-4.0625-8.4678-4.0625-14.8799c0-17.8848,6.6562-26.8271,19.9688-26.8271c2.1475,0,3.9238,0.2002,5.3281,0.5986
		v4.8789C1833.1592,239.3848,1831.4453,239.1318,1829.4844,239.1318z M1830.375,273.9199c1.4893-1.8281,2.2344-4.3516,2.2344-7.5703
		s-0.7139-5.6426-2.1406-7.2725c-1.4277-1.6299-3.4639-2.4453-6.1094-2.4453c-2.6465,0-4.8652,0.8467-6.6562,2.5391
		c-1.792,1.6924-2.6875,3.626-2.6875,5.7998c0,3.1758,0.8438,5.9199,2.5312,8.2285c1.6875,2.3096,3.875,3.4639,6.5625,3.4639
		S1828.8848,275.749,1830.375,273.9199z"/>
	
		<line fill="none" stroke="#E30074" stroke-width="4" stroke-miterlimit="10" x1="308.2656" y1="0.5361" x2="308.2656" y2="280.6631"/>
	
		<line fill="none" stroke="#E30074" stroke-width="4" stroke-miterlimit="10" x1="438.7656" y1="0.5361" x2="438.7656" y2="280.6631"/>
	
		<line fill="none" stroke="#E30074" stroke-width="4" stroke-miterlimit="10" x1="177.7656" y1="0.5361" x2="177.7656" y2="280.6631"/>
	
		<line fill="none" stroke="#E30074" stroke-width="4" stroke-miterlimit="10" x1="47.2656" y1="0.5361" x2="47.2656" y2="280.6631"/>
	
		<line fill="none" stroke="#E30074" stroke-width="4" stroke-miterlimit="10" x1="567.2656" y1="0.5361" x2="567.2656" y2="280.6631"/>
	
		<line fill="none" stroke="#E30074" stroke-width="4" stroke-miterlimit="10" x1="699.7656" y1="0.5361" x2="699.7656" y2="280.6631"/>
	
		<line fill="none" stroke="#E30074" stroke-width="4" stroke-miterlimit="10" x1="828.2656" y1="0.5361" x2="828.2656" y2="280.6631"/>
	
		<line fill="none" stroke="#E30074" stroke-width="4" stroke-miterlimit="10" x1="962.7656" y1="0.5361" x2="962.7656" y2="280.6631"/>
	
		<line fill="none" stroke="#E30074" stroke-width="4" stroke-miterlimit="10" x1="1085.2656" y1="0.5361" x2="1085.2656" y2="280.6631"/>
	
		<line fill="none" stroke="#E30074" stroke-width="4" stroke-miterlimit="10" x1="1219.7656" y1="0.5361" x2="1219.7656" y2="280.6631"/>
	
		<line fill="none" stroke="#E30074" stroke-width="4" stroke-miterlimit="10" x1="1344.2656" y1="0.5361" x2="1344.2656" y2="280.6631"/>
	
		<line fill="none" stroke="#E30074" stroke-width="4" stroke-miterlimit="10" x1="1480.7656" y1="0.5361" x2="1480.7656" y2="280.6631"/>
	
		<line fill="none" stroke="#E30074" stroke-width="4" stroke-miterlimit="10" x1="1606.2656" y1="0.5361" x2="1606.2656" y2="280.6631"/>
	
		<line fill="none" stroke="#E30074" stroke-width="4" stroke-miterlimit="10" x1="1736.7656" y1="0.5361" x2="1736.7656" y2="280.6631"/>
	
		<line fill="none" stroke="#E30074" stroke-width="4" stroke-miterlimit="10" x1="1867.2656" y1="0.5361" x2="1867.2656" y2="280.6631"/>
	<path fill="#000032" d="M159.4487,97.6875H86.7925c0.501,23.4375,11.269,35.1562,32.3057,35.1562
		c12.2007,0,23.7759-2.375,34.7256-7.125v15c-10.3857,4.6875-21.7734,7.0312-34.1616,7.0312
		c-15.2446,0-27.4409-4.6719-36.5874-14.0156c-9.1465-9.3428-13.7197-22.2891-13.7197-38.8389s4.1895-29.6592,12.5684-39.3281
		c8.3789-9.6699,19.4561-14.5049,33.23-14.5049s24.6006,4.1875,32.4785,12.5625c7.8779,8.376,11.8169,19.5322,11.8169,33.4688
		V97.6875z M140.98,83.5312c0.0615-18.875-8.4844-28.3125-25.6392-28.3125s-26.5459,9.4375-28.1733,28.3125H140.98z"/>
	<path fill="#000032" d="M260.3848,56.4375c-10.1885,0-18.0469,2.8975-23.5781,8.6904c-5.5312,5.7939-8.2969,14.1699-8.2969,25.1299
		v55.6172h-17.0625V42.9375h13.875l2.0625,18.666h0.75c4.749-7.374,9.8438-12.6396,15.2812-15.8008
		c5.4375-3.1602,11.9678-4.7402,19.5938-4.7402c7.624,0,15.2812,1.3955,22.9688,4.1865l-4.5938,15.416
		C273.6973,57.8467,266.6963,56.4375,260.3848,56.4375z"/>
	<path fill="#000032" d="M399.6641,145.875V79.5938c0-16.25-7.4385-24.375-22.3125-24.375
		c-19.188,0-28.7812,12.4375-28.7812,37.3125v53.3438h-17.0625V42.9375h13.7812l2.5312,13.875h0.9375
		c6.4365-10.5,16.9365-15.75,31.5-15.75c24.312,0,36.4688,12.5312,36.4688,37.5938v67.2188H399.6641z"/>
	<path fill="#000032" d="M511.0293,144.2441c-5.0449,2.3369-12.1357,3.5059-21.2764,3.5059s-16.5547-2.6797-22.2441-8.0391
		c-5.6895-5.3584-8.5342-12.8691-8.5342-22.5283c0-20.6875,15.8926-31.5303,47.6777-32.5283L525.6309,84v-6.5117
		c0-14.8457-7.6406-22.2695-22.9189-22.2695c-9.1816,0-19.4238,2.5791-30.7275,7.7373l-5.8125-12.8936c12.1494-6,24.7041-9,37.667-9
		c12.9619,0,22.6475,2.7188,29.0547,8.1562s9.6123,14.1562,9.6123,26.1562v70.5h-12.2812l-3.6104-14.2031h-0.7812
		C521.0078,137.7168,516.0732,141.9082,511.0293,144.2441z M476.4121,117.0684c0,11.0176,6.2627,16.5254,18.7871,16.5254
		c9.2051,0,16.5469-2.5215,22.0254-7.5664c5.4785-5.043,8.2188-12.1445,8.2188-21.3057v-9.1904l-15.2168,0.6504
		c-12.2734,0.4951-20.9775,2.3994-26.1123,5.71C478.9785,105.2021,476.4121,110.2617,476.4121,117.0684z"/>
	<path fill="#000032" d="M648.1294,147.75c-22.626,0-33.9375-10.749-33.9375-32.25V55.7812h-25.0312v-8.8125l25.0312-4.5938
		l7.2188-26.9062h9.8438v27.4688h41.0625v12.8438h-41.0625v59.5752c0,12.1582,6,18.2373,18,18.2373
		c5.8125,0,13.3125-0.6553,22.5-1.9648V144.71C663.6289,146.7363,655.7539,147.75,648.1294,147.75z"/>
	<path fill="#000032" d="M731.4399,42.9375h42.2812v89.5312l33,1.875v11.5312h-82.3125v-11.5312l32.25-1.875V56.4375
		l-25.2188-1.9688V42.9375z M764.5308,22.0312c-6.186-0.0615-9.2783-3.6562-9.2783-10.7812s3.063-10.6875,9.1904-10.6875
		s9.2197,3.5625,9.2783,10.6875c0,3.625-0.9111,6.3281-2.7319,8.1094S767.0151,22.0312,764.5308,22.0312z"/>
	<path fill="#000032" d="M926.9624,133.4062c-8.5049,9.5625-19.7051,14.3438-33.6021,14.3438
		c-13.8984,0-25.1777-4.8428-33.8379-14.5312c-8.6602-9.6875-12.9902-22.7188-12.9902-39.0938
		c0-16.374,4.2041-29.3115,12.6152-38.8125c8.4111-9.5,19.6274-14.25,33.6504-14.25c14.0215,0,25.3477,4.8438,33.9771,14.5312
		c8.6294,9.6885,12.9448,22.6875,12.9448,39S935.4673,123.8438,926.9624,133.4062z M893.1729,133.5938
		c19.4062,0,29.1094-13.0625,29.1094-39.1875c0-26.124-9.7031-39.1875-29.1094-39.1875s-29.1416,13.0635-29.2031,39.1875
		C864.0312,120.5312,873.7666,133.5938,893.1729,133.5938z"/>
	<path fill="#000032" d="M1048.7178,145.875V79.5938c0-16.25-7.4385-24.375-22.3125-24.375
		c-19.1885,0-28.7812,12.4375-28.7812,37.3125v53.3438h-17.0625V42.9375h13.7812l2.5312,13.875h0.9375
		c6.4365-10.5,16.9365-15.75,31.5-15.75c24.3115,0,36.4688,12.5312,36.4688,37.5938v67.2188H1048.7178z"/>
	<path fill="#000032" d="M1160.083,144.2441c-5.0449,2.3369-12.1357,3.5059-21.2764,3.5059s-16.5547-2.6797-22.2441-8.0391
		c-5.6895-5.3584-8.5342-12.8691-8.5342-22.5283c0-20.6875,15.8926-31.5303,47.6777-32.5283L1174.6846,84v-6.5117
		c0-14.8457-7.6406-22.2695-22.9189-22.2695c-9.1816,0-19.4238,2.5791-30.7275,7.7373l-5.8125-12.8936c12.1494-6,24.7041-9,37.667-9
		c12.9619,0,22.6475,2.7188,29.0547,8.1562s9.6123,14.1562,9.6123,26.1562v70.5h-12.2812l-3.6104-14.2031h-0.7812
		C1170.0615,137.7168,1165.127,141.9082,1160.083,144.2441z M1125.4658,117.0684c0,11.0176,6.2627,16.5254,18.7871,16.5254
		c9.2051,0,16.5469-2.5215,22.0254-7.5664c5.4785-5.043,8.2188-12.1445,8.2188-21.3057v-9.1904l-15.2168,0.6504
		c-12.2734,0.4951-20.9775,2.3994-26.1123,5.71C1128.0322,105.2021,1125.4658,110.2617,1125.4658,117.0684z"/>
	<path fill="#000032" d="M1249.8398,0h42.2812v132.4697l33.0938,1.874v11.5312h-82.5v-11.5312l32.3438-1.874V13.498l-25.2188-1.9668
		V0z"/>
	<path fill="#000032" d="M1380.4941,42.9375h42.2812v89.5312l33,1.875v11.5312h-82.3125v-11.5312l32.25-1.875V56.4375
		l-25.2188-1.9688V42.9375z M1413.584,22.0312c-6.1855-0.0615-9.2773-3.6562-9.2773-10.7812s3.0625-10.6875,9.1895-10.6875
		c6.1279,0,9.2207,3.5625,9.2793,10.6875c0,3.625-0.9121,6.3281-2.7324,8.1094S1416.0684,22.0312,1413.584,22.0312z"/>
	<path fill="#000032" d="M1582.6797,145.875h-80.8125v-11.7188l61.875-78.375h-58.7812V42.9375h76.0312V56.625l-60.6562,76.4062
		h62.3438V145.875z"/>
	<path fill="#000032" d="M1679.3262,144.2441c-5.0449,2.3369-12.1367,3.5059-21.2773,3.5059s-16.5537-2.6797-22.2432-8.0391
		c-5.6895-5.3584-8.5342-12.8691-8.5342-22.5283c0-20.6875,15.8926-31.5303,47.6777-32.5283L1693.9277,84v-6.5117
		c0-14.8457-7.6406-22.2695-22.9189-22.2695c-9.1816,0-19.4238,2.5791-30.7275,7.7373l-5.8125-12.8936c12.1484-6,24.7041-9,37.666-9
		c12.9629,0,22.6484,2.7188,29.0557,8.1562s9.6123,14.1562,9.6123,26.1562v70.5h-12.2812l-3.6113-14.2031h-0.7803
		C1689.3047,137.7168,1684.3691,141.9082,1679.3262,144.2441z M1644.709,117.0684c0,11.0176,6.2617,16.5254,18.7871,16.5254
		c9.2051,0,16.5469-2.5215,22.0254-7.5664c5.4785-5.043,8.2188-12.1445,8.2188-21.3057v-9.1904l-15.2168,0.6504
		c-12.2734,0.4951-20.9785,2.3994-26.1123,5.71C1647.2754,105.2021,1644.709,110.2617,1644.709,117.0684z"/>
	<path fill="#000032" d="M1816.4258,147.75c-22.626,0-33.9375-10.749-33.9375-32.25V55.7812h-25.0312v-8.8125l25.0312-4.5938
		l7.2188-26.9062h9.8438v27.4688h41.0625v12.8438h-41.0625v59.5752c0,12.1582,6,18.2373,18,18.2373
		c5.8125,0,13.3125-0.6553,22.5-1.9648V144.71C1831.9258,146.7363,1824.0508,147.75,1816.4258,147.75z"/>
	<g>
		<polygon fill="#000032" points="1920,42.9375 1899.7363,42.9375 1899.7363,54.4688 1920,56.0508 		"/>
		<polygon fill="#000032" points="1920,132.7568 1892.7051,134.3438 1892.7051,145.875 1920,145.875 		"/>
	</g>
	<path fill="#000032" d="M1914.7969,280.7568H1920v-45.6875h-4.4092l-11.9502,9.3438l3.0312,3.8438l4.5938-3.7812
		c1.708-1.458,2.9668-2.6357,3.7754-3.5312c-0.1631,4.9795-0.2441,8.7393-0.2441,11.2812V280.7568z"/>
	<g>
		<path fill="#000032" d="M0,133.5872v14.1477c7.3369-0.0784,14.9023-1.0801,22.7007-3.0249v-13.0811
			c-9.1875,1.3096-16.6875,1.9648-22.5,1.9648C0.1316,133.5938,0.0686,133.5876,0,133.5872z"/>
		<rect y="42.9375" fill="#000032" width="23.2632" height="12.8438"/>
	</g>
</g>
</svg>
