<?xml version="1.0" encoding="utf-8"?>
<!-- Generator: Adobe Illustrator 20.1.0, SVG Export Plug-In . SVG Version: 6.00 Build 0)  -->
<svg version="1.1" id="XMLID_1_" xmlns="http://www.w3.org/2000/svg" xmlns:xlink="http://www.w3.org/1999/xlink" x="0px" y="0px"
	 viewBox="0 0 1920 281.3818" enable-background="new 0 0 1920 281.3818" xml:space="preserve">
<g id="l10n-count">
	<g>
		<path fill="#000032" d="M213.0879,0h42.2812v132.4697l33.0938,1.874v11.5312h-82.5v-11.5312l32.3438-1.874V13.498l-25.2188-1.9668
			V0z"/>
		<path fill="#000032" d="M409.4541,133.4062c-8.5049,9.5625-19.7051,14.3438-33.6025,14.3438
			c-13.8984,0-25.1777-4.8428-33.8379-14.5312c-8.6602-9.6875-12.9902-22.7188-12.9902-39.0938
			c0-16.374,4.2041-29.3115,12.6152-38.8125c8.4111-9.5,19.6279-14.25,33.6504-14.25c14.0215,0,25.3477,4.8438,33.9775,14.5312
			c8.6289,9.6885,12.9443,22.6875,12.9443,39S417.959,123.8438,409.4541,133.4062z M375.6641,133.5938
			c19.4062,0,29.1094-13.0625,29.1094-39.1875c0-26.124-9.7031-39.1875-29.1094-39.1875s-29.1416,13.0635-29.2031,39.1875
			C346.5225,120.5312,356.2578,133.5938,375.6641,133.5938z"/>
		<path fill="#000032" d="M516.397,55.9688c-23.1885,0-34.7812,12.8291-34.7812,38.4844c0,25.6562,11.2808,38.4531,33.8438,38.3906
			c9.8115,0,19.8428-1.9395,30.0938-5.8203v15.0078c-8.376,3.8125-18.6562,5.7188-30.8438,5.7188
			c-16.0635,0-28.5-4.5645-37.3125-13.6953c-8.8125-9.1289-13.2188-22.3301-13.2188-39.6016c0-17.2705,4.5-30.4883,13.5-39.6494
			s21.7178-13.7412,38.1562-13.7412c11.124,0,21.624,1.832,31.5,5.4961l-5.8125,14.7598
			C532.147,57.7529,523.771,55.9688,516.397,55.9688z"/>
		<path fill="#000032" d="M642.5747,144.2441c-5.0449,2.3369-12.1362,3.5059-21.2769,3.5059s-16.5542-2.6797-22.2437-8.0391
			c-5.6895-5.3584-8.5342-12.8691-8.5342-22.5283c0-20.6875,15.8921-31.5303,47.6777-32.5283L657.1763,84v-6.5117
			c0-14.8457-7.6406-22.2695-22.9189-22.2695c-9.1816,0-19.4238,2.5791-30.728,7.7373l-5.8125-12.8936c12.1494-6,24.7046-9,37.667-9
			s22.6479,2.7188,29.0552,8.1562s9.6123,14.1562,9.6123,26.1562v70.5H661.77l-3.6108-14.2031h-0.7808
			C652.5532,137.7168,647.6182,141.9082,642.5747,144.2441z M607.9575,117.0684c0,11.0176,6.2622,16.5254,18.7866,16.5254
			c9.2051,0,16.5469-2.5215,22.0254-7.5664c5.4785-5.043,8.2192-12.1445,8.2192-21.3057v-9.1904l-15.2168,0.6504
			c-12.2739,0.4951-20.978,2.3994-26.1123,5.71C610.5239,105.2021,607.9575,110.2617,607.9575,117.0684z"/>
		<path fill="#000032" d="M732.3311,0h42.2812v132.4697l33.0938,1.874v11.5312h-82.5v-11.5312l32.3438-1.874V13.498l-25.2188-1.9668
			V0z"/>
		<path fill="#000032" d="M862.9854,42.9375h42.2812v89.5312l33,1.875v11.5312h-82.3125v-11.5312l32.25-1.875V56.4375
			l-25.2188-1.9688V42.9375z M896.0762,22.0312c-6.186-0.0615-9.2783-3.6562-9.2783-10.7812s3.063-10.6875,9.1904-10.6875
			s9.2197,3.5625,9.2783,10.6875c0,3.625-0.9111,6.3281-2.7319,8.1094S898.5605,22.0312,896.0762,22.0312z"/>
		<path fill="#000032" d="M1020.8643,133.5938c17.2246,0,25.8379-5.0498,25.8379-15.1514c0-3.5537-1.5332-6.6396-4.5977-9.2588
			s-11.0088-6.2979-23.8301-11.0361c-12.8232-4.7373-21.1025-9.3516-24.8408-13.8418c-3.7383-4.4883-5.6064-9.8203-5.6064-15.9932
			c0-8.4902,3.4541-15.1533,10.3643-19.9922c6.9092-4.8379,16.5654-7.2578,28.9688-7.2578c12.4014,0,24.0273,2.3125,34.8789,6.9375
			l-5.751,13.9521c-11.4727-4.4883-21.5273-6.7334-30.1621-6.7334c-14.7832,0-22.1738,4.1465-22.1738,12.4395
			c0,3.8027,1.584,6.8418,4.752,9.1182c3.167,2.2764,10.9004,5.627,23.1963,10.0537s20.6807,8.9629,25.1543,13.6084
			c4.4736,4.6465,6.71,10.3359,6.71,17.0684c0,9.4219-3.7207,16.8174-11.1621,22.1875s-18.3838,8.0557-32.8252,8.0557
			c-14.4434,0-25.6338-2.1846-33.5703-6.5557v-15.6445C998.2627,130.9131,1009.8164,133.5938,1020.8643,133.5938z"/>
		<path fill="#000032" d="M1161.8179,144.2441c-5.0449,2.3369-12.1362,3.5059-21.2769,3.5059s-16.5542-2.6797-22.2437-8.0391
			c-5.6895-5.3584-8.5342-12.8691-8.5342-22.5283c0-20.6875,15.8921-31.5303,47.6777-32.5283L1176.4194,84v-6.5117
			c0-14.8457-7.6406-22.2695-22.9189-22.2695c-9.1816,0-19.4238,2.5791-30.728,7.7373l-5.8125-12.8936c12.1494-6,24.7046-9,37.667-9
			s22.6479,2.7188,29.0552,8.1562s9.6123,14.1562,9.6123,26.1562v70.5h-12.2812l-3.6108-14.2031h-0.7808
			C1171.7964,137.7168,1166.8613,141.9082,1161.8179,144.2441z M1127.2007,117.0684c0,11.0176,6.2622,16.5254,18.7866,16.5254
			c9.2051,0,16.5469-2.5215,22.0254-7.5664c5.4785-5.043,8.2192-12.1445,8.2192-21.3057v-9.1904l-15.2168,0.6504
			c-12.2739,0.4951-20.978,2.3994-26.1123,5.71C1129.7671,105.2021,1127.2007,110.2617,1127.2007,117.0684z"/>
		<path fill="#000032" d="M1298.9175,147.75c-22.626,0-33.9375-10.749-33.9375-32.25V55.7812h-25.0312v-8.8125l25.0312-4.5938
			l7.2188-26.9062h9.8438v27.4688h41.0625v12.8438h-41.0625v59.5752c0,12.1582,6,18.2373,18,18.2373
			c5.8125,0,13.3125-0.6553,22.5-1.9648V144.71C1314.417,146.7363,1306.542,147.75,1298.9175,147.75z"/>
		<path fill="#000032" d="M1382.2285,42.9375h42.2812v89.5312l33,1.875v11.5312h-82.3125v-11.5312l32.25-1.875V56.4375
			l-25.2188-1.9688V42.9375z M1415.3193,22.0312c-6.186-0.0615-9.2783-3.6562-9.2783-10.7812s3.063-10.6875,9.1904-10.6875
			s9.2197,3.5625,9.2783,10.6875c0,3.625-0.9111,6.3281-2.7319,8.1094S1417.8037,22.0312,1415.3193,22.0312z"/>
		<path fill="#000032" d="M1577.7505,133.4062c-8.5049,9.5625-19.7051,14.3438-33.6021,14.3438
			c-13.8984,0-25.1777-4.8428-33.8379-14.5312c-8.6602-9.6875-12.9902-22.7188-12.9902-39.0938
			c0-16.374,4.2041-29.3115,12.6152-38.8125c8.4111-9.5,19.6274-14.25,33.6504-14.25c14.0215,0,25.3477,4.8438,33.9771,14.5312
			c8.6294,9.6885,12.9448,22.6875,12.9448,39S1586.2554,123.8438,1577.7505,133.4062z M1543.9609,133.5938
			c19.4062,0,29.1094-13.0625,29.1094-39.1875c0-26.124-9.7031-39.1875-29.1094-39.1875s-29.1416,13.0635-29.2031,39.1875
			C1514.8193,120.5312,1524.5547,133.5938,1543.9609,133.5938z"/>
		<path fill="#000032" d="M1699.5059,145.875V79.5938c0-16.25-7.4385-24.375-22.3125-24.375
			c-19.188,0-28.7812,12.4375-28.7812,37.3125v53.3438h-17.0625V42.9375h13.7812l2.5312,13.875h0.9375
			c6.4365-10.5,16.9365-15.75,31.5-15.75c24.312,0,36.4688,12.5312,36.4688,37.5938v67.2188H1699.5059z"/>
	</g>
	<g>
		<path fill="#000032" d="M379.6094,280.7568h-5.375v-28.5312c0-2.542,0.0811-6.3018,0.2441-11.2812
			c-0.8086,0.8955-2.0674,2.0732-3.7754,3.5312l-4.5938,3.7812l-3.0312-3.8438l11.9502-9.3438h4.5811V280.7568z"/>
	</g>
	<g>
		<path fill="#000032" d="M518.9531,280.7568h-28.4375v-4.8164l10.9219-11.9551c4.0557-4.4561,6.7285-7.7705,8.0186-9.9463
			s1.9346-4.5195,1.9346-7.0293c0-2.5117-0.6611-4.4512-1.9844-5.8223c-1.3232-1.3701-3.1094-2.0557-5.3594-2.0557
			c-3.333,0-6.6455,1.4336-9.9375,4.2998l-3.1875-3.7344c4-3.5234,8.3955-5.2842,13.1875-5.2842
			c4.042,0,7.2344,1.0986,9.5781,3.2959s3.5156,5.1504,3.5156,8.8613c0,2.4902-0.6143,5.043-1.8438,7.6582
			s-4.2607,6.5371-9.0938,11.7676l-8.7812,9.3848v0.251h21.4688V280.7568z"/>
	</g>
	<g>
		<path fill="#000032" d="M648.9844,267.7871c0,4.2197-1.4268,7.541-4.2812,9.9629s-6.9062,3.6318-12.1562,3.6318
			s-9.3857-0.8115-12.4062-2.4365v-5.293c3.833,2.0078,7.8232,3.0107,11.9688,3.0107c7.375,0,11.0625-3.0215,11.0625-9.0645
			c0-5.3945-3.9766-8.0918-11.9287-8.0918h-4.165v-4.7188h4.165c3.3408,0,5.9297-0.791,7.7666-2.374
			c1.8369-1.582,2.7559-3.5674,2.7559-5.957c0-2.3887-0.708-4.207-2.125-5.4551c-1.417-1.2461-3.3125-1.8701-5.6875-1.8701
			c-3.708,0-7.292,1.2686-10.75,3.8037l-2.875-3.9258c3.8955-3.0645,8.4375-4.5967,13.625-4.5967
			c4.292,0,7.6357,1.0127,10.0312,3.0361s3.5938,4.6279,3.5938,7.8135s-0.8545,5.751-2.5625,7.6973s-4.1455,3.1904-7.3125,3.7344
			v0.1875C645.2236,257.8633,648.9844,261.499,648.9844,267.7871z"/>
	</g>
	<g>
		<path fill="#000032" d="M781.7344,270.4443h-6.7812v10.3125h-5.375v-10.3125h-21.25v-4.9092l20.75-30.7158h5.875v30.5h6.7812
			V270.4443z M769.5781,265.3193v-11.125c0-3.667,0.1348-8.167,0.4033-13.5h-0.2812c-0.748,2.125-1.6846,4-2.8096,5.625l-12.8438,19
			H769.5781z"/>
	</g>
	<g>
		<path fill="#000032" d="M894.6719,276.6631c7,0,10.5-3.292,10.5-9.877c0-6.165-3.583-9.248-10.749-9.248
			c-1.8545,0-4.2607,0.2725-7.2188,0.8174l-2.8125-1.7861l1.7178-21.5h21.5498v5.125h-16.6279l-1.2236,13.1543
			c2.2275-0.3525,4.4043-0.5293,6.5283-0.5293c4.3721,0,7.9072,1.1797,10.6035,3.5391s4.0449,5.8037,4.0449,10.333
			s-1.4268,8.1113-4.2812,10.7422c-2.8545,2.6328-6.7607,3.9482-11.7188,3.9482s-8.8125-0.8018-11.5625-2.4053v-5.333
			C886.4219,275.6562,890.1719,276.6631,894.6719,276.6631z"/>
	</g>
	<g>
		<path fill="#000032" d="M1031.5156,239.1318c-4.667,0-8.1719,1.4668-10.5156,4.3994c-2.3438,2.9336-3.6201,7.582-3.8281,13.9473
			h0.375c1.958-3.418,5.0625-5.1279,9.3125-5.1279s7.5049,1.21,9.7656,3.6299s3.3906,5.8965,3.3906,10.4316
			s-1.2344,8.1641-3.7031,10.8867s-5.8906,4.083-10.2656,4.083s-7.917-1.7539-10.625-5.2617s-4.0625-8.4678-4.0625-14.8799
			c0-17.8848,6.6562-26.8271,19.9688-26.8271c2.1475,0,3.9238,0.2002,5.3281,0.5986v4.8789
			C1035.1904,239.3848,1033.4766,239.1318,1031.5156,239.1318z M1032.4062,273.9199c1.4893-1.8281,2.2344-4.3516,2.2344-7.5703
			s-0.7139-5.6426-2.1406-7.2725s-3.4639-2.4453-6.1094-2.4453s-4.8643,0.8467-6.6562,2.5391s-2.6875,3.626-2.6875,5.7998
			c0,3.1758,0.8438,5.9199,2.5312,8.2285c1.6875,2.3096,3.875,3.4639,6.5625,3.4639S1030.917,275.749,1032.4062,273.9199z"/>
	</g>
	<g>
		<path fill="#000032" d="M1139.5156,240.1943v-5.125h29.375v4.4766l-17.3438,41.2109h-6.0625l17.5938-40.5625H1139.5156z"/>
	</g>
	<g>
		<path fill="#000032" d="M1298.2969,268.8438c0,3.7734-1.3281,6.8066-3.9834,9.0996s-6.1865,3.4385-10.5938,3.4385
			s-7.8926-1.0791-10.4541-3.2354c-2.5625-2.1582-3.8438-5.1758-3.8438-9.0527c0-5.3574,2.9775-9.4551,8.9336-12.291
			c-4.9766-3.0439-7.4648-6.8906-7.4648-11.541c0-3.3457,1.2334-6.001,3.7012-7.9648s5.583-2.9463,9.3457-2.9463
			s6.8516,0.9873,9.2676,2.9619c2.415,1.9746,3.623,4.6445,3.623,8.0117c0,4.7969-2.7686,8.5391-8.3066,11.2285
			C1295.0381,259.8887,1298.2969,263.9863,1298.2969,268.8438z M1275.1094,269.1562c0,5.0049,2.8701,7.5068,8.6104,7.5068
			c2.8281,0,5.0166-0.6826,6.5654-2.0479c1.5498-1.3662,2.3242-3.1328,2.3242-5.3018s-0.6553-3.9717-1.9648-5.4111
			c-1.3105-1.4375-3.5352-2.9297-6.6758-4.4727l-0.9355-0.4375C1277.751,261.5156,1275.1094,264.9033,1275.1094,269.1562z
			 M1291.1406,245.543c0-2.1055-0.6553-3.7109-1.9648-4.8164c-1.3096-1.1045-3.0869-1.6572-5.332-1.6572
			s-4.0176,0.5479-5.3164,1.6416c-1.2998,1.0957-1.9492,2.6436-1.9492,4.6445c0,2.002,0.5146,3.6543,1.5439,4.958
			c1.0283,1.3037,2.957,2.6113,5.7842,3.9248C1288.7295,252.0908,1291.1406,249.1924,1291.1406,245.543z"/>
	</g>
	<g>
		<path fill="#000032" d="M1408.3652,276.6631c4.6748,0,8.1865-1.4639,10.5342-4.3916s3.626-7.5703,3.835-13.9248h-0.375
			c-2.0039,3.4189-5.124,5.1289-9.3613,5.1289c-4.2363,0-7.4854-1.2002-9.7471-3.6006c-2.2607-2.4004-3.3916-5.8818-3.3916-10.4453
			c0-4.5625,1.2295-8.2061,3.6895-10.9297c2.459-2.7246,5.9014-4.0869,10.3262-4.0869c4.4238,0,7.9756,1.7803,10.6543,5.3389
			s4.0176,8.4902,4.0176,14.7959c0,17.8896-6.665,26.834-19.9941,26.834c-2.1709,0-3.9492-0.1904-5.334-0.5693v-4.9375
			C1404.6035,276.4004,1406.3193,276.6631,1408.3652,276.6631z M1407.457,241.8789c-1.4814,1.832-2.2227,4.3594-2.2227,7.582
			c0,3.2246,0.7148,5.6523,2.1445,7.2852s3.4697,2.4482,6.1201,2.4482s4.873-0.8525,6.668-2.5586s2.6924-3.6367,2.6924-5.793
			c0-3.1602-0.8398-5.9023-2.5195-8.2256c-1.6807-2.3232-3.877-3.4854-6.5898-3.4854
			C1411.0361,239.1318,1408.9385,240.0479,1407.457,241.8789z"/>
	</g>
	<g>
		<path fill="#000032" d="M1530.4062,280.7568h-5.375v-28.5312c0-2.542,0.0811-6.3018,0.2441-11.2812
			c-0.8086,0.8955-2.0674,2.0732-3.7754,3.5312l-4.5938,3.7812l-3.0312-3.8438l11.9502-9.3438h4.5811V280.7568z"/>
		<path fill="#000032" d="M1564.3906,281.3818c-4.7764,0-8.3945-2.0059-10.8555-6.0186s-3.6914-9.8135-3.6914-17.4033
			c0-15.7393,4.8486-23.6094,14.5469-23.6094c4.8486,0,8.5117,2.0254,10.9883,6.0752s3.7148,9.8945,3.7148,17.5342
			C1579.0938,273.5742,1574.1924,281.3818,1564.3906,281.3818z M1557.7617,272.3008c1.4043,2.9082,3.624,4.3623,6.6602,4.3623
			s5.2725-1.4639,6.707-4.3936s2.1523-7.6895,2.1523-14.2783s-0.7178-11.3477-2.1523-14.2773s-3.6709-4.3945-6.707-4.3945
			s-5.2559,1.4541-6.6602,4.3633c-1.4033,2.9092-2.1055,7.6787-2.1055,14.3086
			C1555.6562,264.6221,1556.3584,269.3916,1557.7617,272.3008z"/>
	</g>
	<line fill="none" stroke="#E30074" stroke-width="4" stroke-miterlimit="10" x1="310" y1="0.5625" x2="310" y2="280.6631"/>
	<line fill="none" stroke="#E30074" stroke-width="4" stroke-miterlimit="10" x1="440.5" y1="0.5625" x2="440.5" y2="280.6631"/>
	<line fill="none" stroke="#E30074" stroke-width="4" stroke-miterlimit="10" x1="569" y1="0.5625" x2="569" y2="280.6631"/>
	<line fill="none" stroke="#E30074" stroke-width="4" stroke-miterlimit="10" x1="701.5" y1="0.5625" x2="701.5" y2="280.6631"/>
	<line fill="none" stroke="#E30074" stroke-width="4" stroke-miterlimit="10" x1="830" y1="0.5625" x2="830" y2="280.6631"/>
	<line fill="none" stroke="#E30074" stroke-width="4" stroke-miterlimit="10" x1="964.5" y1="0.5625" x2="964.5" y2="280.6631"/>
	<line fill="none" stroke="#E30074" stroke-width="4" stroke-miterlimit="10" x1="1087" y1="0.5625" x2="1087" y2="280.6631"/>
	<line fill="none" stroke="#E30074" stroke-width="4" stroke-miterlimit="10" x1="1221.5" y1="0.5625" x2="1221.5" y2="280.6631"/>
	<line fill="none" stroke="#E30074" stroke-width="4" stroke-miterlimit="10" x1="1346" y1="0.5625" x2="1346" y2="280.6631"/>
	<line fill="none" stroke="#E30074" stroke-width="4" stroke-miterlimit="10" x1="1482.5" y1="0.5625" x2="1482.5" y2="280.6631"/>
	<line fill="none" stroke="#E30074" stroke-width="4" stroke-miterlimit="10" x1="1608" y1="0.5625" x2="1608" y2="280.6631"/>
	<rect fill="none" width="1920" height="281.3818"/>
</g>
</svg>
