<?xml version="1.0" encoding="utf-8"?>
<!-- Generator: Adobe Illustrator 20.1.0, SVG Export Plug-In . SVG Version: 6.00 Build 0)  -->
<svg version="1.1" id="XMLID_2_" xmlns="http://www.w3.org/2000/svg" xmlns:xlink="http://www.w3.org/1999/xlink" x="0px" y="0px"
	 viewBox="0 0 1024 832" enable-background="new 0 0 1024 832" xml:space="preserve">
<g id="language-selection-link-splash-page">
	<g>
		<path fill="#EAF0F0" d="M0,64V3c0-1.65,1.35-3,3-3h1018c1.65,0,3,1.35,3,3v61"/>
		<path fill="#808098" d="M144,22h-11c-1.6499,0-3.3274-1.3097-3.7275-2.9104l-2.5449-10.1792C126.3274,7.3097,124.6499,6,123,6H61
			c-1.6499,0-3.3274,1.3097-3.7275,2.9104l-2.5449,10.1792C54.3274,20.6903,52.6499,22,51,22H40H0v42h1024V22H144z"/>
		<path fill="#FFFFFF" d="M78,55c-1.65,0-3-1.35-3-3V34c0-1.65,1.35-3,3-3h913c1.65,0,3,1.35,3,3v18c0,1.65-1.35,3-3,3H78z"/>
		<circle fill="#E30074" cx="11" cy="11" r="5"/>
		<circle fill="#FF9600" cx="27" cy="11" r="5"/>
		<circle fill="#40B3FF" cx="43" cy="11" r="5"/>
		<polygon fill="#808098" points="144,12 141,12 141,9 139,9 139,12 136,12 136,14 139,14 139,17 141,17 141,14 144,14 		"/>
		<g>
			<polygon fill="#EAF0F0" points="91,49 81,49 81,37 87,37 91,41 			"/>
			<polygon fill="#808098" points="91,41 87,41 87,37 			"/>
		</g>
		<g>
			<rect x="1003" y="43" fill="#000032" width="12" height="2"/>
			<rect x="1003" y="38" fill="#000032" width="12" height="2"/>
			<rect x="1003" y="48" fill="#000032" width="12" height="2"/>
		</g>
		<path fill="#FFFFFF" d="M12,55c-1.65,0-3-1.35-3-3V34c0-1.65,1.35-3,3-3h18c1.65,0,3,1.35,3,3v18c0,1.65-1.35,3-3,3H12z"/>
		<g>
			<polygon fill="#000032" points="22.6465,48.3535 17.293,43 22.6465,37.6465 23.3535,38.3535 18.707,43 23.3535,47.6465 			"/>
		</g>
		<path fill="#FFFFFF" d="M63,55c1.65,0,3-1.35,3-3V34c0-1.65-1.35-3-3-3H45c-1.65,0-3,1.35-3,3v18c0,1.65,1.35,3,3,3H63z"/>
		<g>
			<polygon fill="#808098" points="52.3535,48.3535 51.6465,47.6465 56.293,43 51.6465,38.3535 52.3535,37.6465 57.707,43 			"/>
		</g>
	</g>
	<rect y="64" fill="#FFFFFF" width="1024" height="768"/>
	<g>
		<path fill="#000032" d="M618.0781,138.0938c2.7285-2.7285,6.0312-4.0938,9.9062-4.0938s7.1768,1.3652,9.9062,4.0938
			c2.7285,2.7295,4.0938,6.0312,4.0938,9.9062s-1.3652,7.1777-4.0938,9.9062c-2.7295,2.7285-6.0312,4.0938-9.9062,4.0938
			s-7.1777-1.3652-9.9062-4.0938c-2.7295-2.7285-4.0938-6.0312-4.0938-9.9062S615.3486,140.8232,618.0781,138.0938z
			 M620.2344,157.125l0.125,0.125c0.291,0.25,0.7705,0.584,1.4375,1c-1.042-1.041-1.4795-2.666-1.3125-4.875l0.1875-1.5
			c0.041-0.083,0.0098-0.1973-0.0938-0.3438c-0.1045-0.1455-0.1562-0.2598-0.1562-0.3438c0-0.291-0.084-0.4785-0.25-0.5625
			c-0.084-0.083-0.167-0.166-0.25-0.25c-0.375-0.375-0.625-0.7285-0.75-1.0625c-0.334-0.708-0.125-1.6035,0.625-2.6875
			c0.208-0.333,0.166-0.7285-0.125-1.1875c-0.292-0.458-0.459-0.7285-0.5-0.8125c0-0.125-0.0732-0.25-0.2188-0.375
			c-0.1465-0.125-0.1982-0.25-0.1562-0.375c0.041-0.208-0.042-0.333-0.25-0.375c-0.125-0.083-0.2295-0.1455-0.3125-0.1875
			c-0.292-0.166-0.417-0.4473-0.375-0.8438c0.041-0.3955,0.0205-0.6562-0.0625-0.7812c-1.334,2.209-1.9062,4.6045-1.7188,7.1875
			c0.1875,2.584,1.0938,4.8545,2.7188,6.8125l0.0625,0.0625v0.0625h0.0625c0.25,0.334,0.4375,0.5625,0.5625,0.6875
			c0.083,0.084,0.1973,0.1875,0.3438,0.3125c0.1455,0.125,0.2393,0.209,0.2812,0.25L620.2344,157.125z M622.7969,158.8125l0.5,0.25
			c0.25,0.084,0.458,0.1465,0.625,0.1875c0.791,0.292,1.6875,0.5,2.6875,0.625c1.875,0.208,3.6035,0.042,5.1875-0.5
			c1.125-0.375,2.0205-0.791,2.6875-1.25c0.125-0.083,0.25-0.333,0.375-0.75c0.125-0.416,0.208-0.666,0.25-0.75
			c0.125-0.25,0.1973-0.7188,0.2188-1.4062c0.0205-0.6875,0.1973-1.1973,0.5312-1.5312c0.208-0.25,0.333-0.4785,0.375-0.6875
			c0.041-0.208,0.0312-0.4473-0.0312-0.7188c-0.0625-0.2705-0.0938-0.5098-0.0938-0.7188c0-0.125,0.0625-0.3955,0.1875-0.8125
			c0.125-0.416,0.1455-0.75,0.0625-1c0-0.083-0.084-0.0938-0.25-0.0312c-0.167,0.0625-0.2715,0.0527-0.3125-0.0312
			c-0.084-0.125-0.2402-0.1973-0.4688-0.2188c-0.2295-0.0205-0.4795-0.0098-0.75,0.0312c-0.2715,0.042-0.4482,0.0625-0.5312,0.0625
			c-0.5-0.083-1.1875-0.5625-2.0625-1.4375c-0.125-0.125-0.1045-0.666,0.0625-1.625c0.041-0.125,0.083-0.416,0.125-0.875
			c0.041-0.458,0.1348-0.8018,0.2812-1.0312c0.1455-0.2285,0.4062-0.3848,0.7812-0.4688c0.125-0.041,0.2393-0.1562,0.3438-0.3438
			c0.1035-0.1875,0.1973-0.3018,0.2812-0.3438c0.125-0.041,0.2812-0.083,0.4688-0.125c0.1875-0.041,0.3438-0.083,0.4688-0.125
			c0.208-0.041,0.4893-0.0312,0.8438,0.0312c0.3535,0.0625,0.6143,0.0938,0.7812,0.0938c0.291,0,0.75,0.2295,1.375,0.6875
			c0.125,0.125,0.2598,0.1982,0.4062,0.2188c0.1455,0.0215,0.3125,0.0312,0.5,0.0312s0.3438,0.0215,0.4688,0.0625
			c0.166-0.041,0.125-0.208-0.125-0.5c-0.125-0.083-0.292-0.125-0.5-0.125c-0.375-0.083-0.792-0.3848-1.25-0.9062
			c-0.459-0.5205-0.792-0.8438-1-0.9688c-0.292-0.166-0.5215-0.166-0.6875,0l0.0625,0.75c0,0.042-0.2715,0.1465-0.8125,0.3125
			c-0.375,0.084-0.7295-0.125-1.0625-0.625c-0.209-0.375-0.167-0.625,0.125-0.75h0.1875c0.083-0.041,0.166-0.0723,0.25-0.0938
			c0.083-0.0205,0.1875-0.0518,0.3125-0.0938c0.125-0.041,0.2285-0.083,0.3125-0.125c0.083-0.041,0.166-0.0938,0.25-0.1562
			c0.083-0.0625,0.1455-0.1348,0.1875-0.2188c0.041-0.083,0.041-0.166,0-0.25c-0.042-0.083-0.0625-0.2285-0.0625-0.4375
			c-0.042-0.25-0.125-0.3955-0.25-0.4375c-0.167-0.041-0.3232-0.125-0.4688-0.25c-0.1465-0.125-0.3027-0.208-0.4688-0.25
			c-0.209-0.041-0.3125-0.333-0.3125-0.875c0-0.291,0.1035-0.4375,0.3125-0.4375c0.083,0,0.166,0,0.25,0
			c-1.042-0.666-2.2295-1.166-3.5625-1.5c-0.167,0.5-0.334,0.75-0.5,0.75c-0.292,0.084-0.4795,0.1465-0.5625,0.1875
			c-0.084,0.084-0.1875,0.2188-0.3125,0.4062s-0.2295,0.3232-0.3125,0.4062c-0.084,0.084-0.1777,0.1562-0.2812,0.2188
			c-0.1045,0.0625-0.209,0.042-0.3125-0.0625c-0.1045-0.1035-0.2188-0.2812-0.3438-0.5312c-0.084-0.25-0.0732-0.5625,0.0312-0.9375
			c0.1035-0.375,0.1348-0.6455,0.0938-0.8125h-0.375h-0.1875c0.291,0.584,0.125,0.9795-0.5,1.1875
			c-0.167,0-0.3438-0.0518-0.5312-0.1562c-0.1875-0.1035-0.3652-0.1348-0.5312-0.0938c-0.084,0-0.1982-0.0312-0.3438-0.0938
			c-0.1465-0.0625-0.2607-0.0723-0.3438-0.0312c-0.542,0.25-0.834,0.5-0.875,0.75c-0.084,0.375-0.0215,0.5938,0.1875,0.6562
			c0.208,0.0625,0.4375-0.0312,0.6875-0.2812c0.583-0.583,1.1035-0.708,1.5625-0.375c0.208,0.167,0.3125,0.459,0.3125,0.875
			c0,0.167-0.0107,0.3125-0.0312,0.4375c-0.0215,0.125-0.0732,0.2607-0.1562,0.4062c-0.084,0.1465-0.209,0.1982-0.375,0.1562
			c-0.042,0-0.1152-0.0312-0.2188-0.0938c-0.1045-0.0625-0.1777-0.1035-0.2188-0.125c-0.042-0.0205-0.125-0.0098-0.25,0.0312
			c-0.084,0.084-0.6875,0.2715-1.8125,0.5625c-0.25,0.042-0.5527,0.1357-0.9062,0.2812c-0.3545,0.1465-0.5732,0.2402-0.6562,0.2812
			c-0.459,0.167-0.709,0.417-0.75,0.75c0,0.584-0.0625,0.8965-0.1875,0.9375c-0.084,0.042-0.1777-0.0518-0.2812-0.2812
			c-0.1045-0.2285-0.25-0.458-0.4375-0.6875c-0.1875-0.2285-0.4062-0.3223-0.6562-0.2812c-0.417,0.042-0.8125,0.2402-1.1875,0.5938
			c-0.375,0.3545-0.5,0.7402-0.375,1.1562c0.041,0.084,0.1973,0.1562,0.4688,0.2188c0.2705,0.0625,0.4375,0.125,0.5,0.1875
			s-0.0527,0.2188-0.3438,0.4688c-0.042,0.084-0.0527,0.1875-0.0312,0.3125c0.0205,0.125,0.0518,0.3027,0.0938,0.5312
			c0.041,0.2295,0.0625,0.3652,0.0625,0.4062c0.041,0.292,0.208,0.5215,0.5,0.6875c0.291,0.167,0.5625,0.1465,0.8125-0.0625
			c0.208-0.208,0.5-0.25,0.875-0.125c1.625,0.875,2.5625,1.4375,2.8125,1.6875c0.083,0.084,0.2393,0.375,0.4688,0.875
			c0.2285,0.5,0.4268,0.792,0.5938,0.875c0.041,0.042,0.2812,0.1465,0.7188,0.3125c0.4375,0.167,0.7393,0.3545,0.9062,0.5625
			c0.166,0.25,0.1768,0.5107,0.0312,0.7812c-0.1465,0.2715-0.3232,0.4902-0.5312,0.6562c-0.084,0.042-0.25,0.334-0.5,0.875
			c-0.25,0.542-0.417,0.8545-0.5,0.9375c-0.084,0.125-0.417,0.2715-1,0.4375c-0.042,0-0.1045,0.0527-0.1875,0.1562
			c-0.084,0.1045-0.1562,0.209-0.2188,0.3125c-0.0625,0.1045-0.1152,0.1777-0.1562,0.2188c-0.084,0.084-0.2295,0.2715-0.4375,0.5625
			c-0.209,0.292-0.417,0.5-0.625,0.625c-0.959,0.667-1.334,1.584-1.125,2.75C622.2344,158.3125,622.4629,158.6465,622.7969,158.8125
			z M634.2969,139.875c0.25,0.542,0.3125,0.8545,0.1875,0.9375c-0.084,0.084-0.2188,0.1045-0.4062,0.0625
			c-0.1875-0.041-0.3232-0.166-0.4062-0.375c-0.042-0.125-0.0625-0.25-0.0625-0.375l-0.0625-0.1875h-0.1875
			c-0.25,0.084-0.375,0-0.375-0.25c0.041-0.083,0.1455-0.166,0.3125-0.25c0-0.041-0.0215-0.083-0.0625-0.125
			c-0.042-0.25,0.0205-0.3535,0.1875-0.3125C633.7549,139.084,634.0469,139.375,634.2969,139.875z"/>
		<path fill="#000032" d="M662.875,140.8594c-1.8232,0-3.2344,0.6855-4.2344,2.0547c-1,1.3701-1.5,3.2793-1.5,5.7266
			c0,5.0938,1.9111,7.6406,5.7344,7.6406c1.6035,0,3.5469-0.4004,5.8281-1.2031v4.0625c-1.875,0.7812-3.9688,1.1719-6.2812,1.1719
			c-3.3232,0-5.8652-1.0078-7.625-3.0234c-1.7607-2.0156-2.6406-4.9082-2.6406-8.6797c0-2.375,0.4316-4.4551,1.2969-6.2422
			c0.8643-1.7861,2.1064-3.1562,3.7266-4.1094c1.6191-0.9531,3.5176-1.4297,5.6953-1.4297c2.2188,0,4.4473,0.5371,6.6875,1.6094
			L668,142.375c-0.8545-0.4062-1.7139-0.7598-2.5781-1.0625C664.5566,141.0107,663.708,140.8594,662.875,140.8594z"/>
		<path fill="#000032" d="M689.3125,160h-4.7656v-10.2031c0-2.5205-0.9375-3.7812-2.8125-3.7812
			c-1.334,0-2.2969,0.4531-2.8906,1.3594s-0.8906,2.375-0.8906,4.4062V160h-4.7656v-24.3125h4.7656v4.9531
			c0,0.3857-0.0371,1.292-0.1094,2.7188l-0.1094,1.4062h0.25c1.0625-1.708,2.75-2.5625,5.0625-2.5625
			c2.0518,0,3.6094,0.5527,4.6719,1.6562c1.0625,1.1045,1.5938,2.6875,1.5938,4.75V160z"/>
		<path fill="#000032" d="M710.0938,151.2344c0,2.8438-0.75,5.0684-2.25,6.6719c-1.5,1.6045-3.5889,2.4062-6.2656,2.4062
			c-1.6777,0-3.1562-0.3672-4.4375-1.1016s-2.2656-1.7891-2.9531-3.1641s-1.0312-2.9785-1.0312-4.8125
			c0-2.8535,0.7441-5.0723,2.2344-6.6562c1.4893-1.583,3.583-2.375,6.2812-2.375c1.6768,0,3.1562,0.3652,4.4375,1.0938
			c1.2812,0.7295,2.2656,1.7764,2.9531,3.1406C709.75,147.8027,710.0938,149.4014,710.0938,151.2344z M698.0156,151.2344
			c0,1.7295,0.2832,3.0371,0.8516,3.9219c0.5674,0.8857,1.4922,1.3281,2.7734,1.3281c1.2705,0,2.1846-0.4395,2.7422-1.3203
			c0.5566-0.8799,0.8359-2.1895,0.8359-3.9297c0-1.7285-0.2812-3.0254-0.8438-3.8906c-0.5625-0.8643-1.4844-1.2969-2.7656-1.2969
			c-1.2715,0-2.1875,0.4297-2.75,1.2891S698.0156,149.4951,698.0156,151.2344z"/>
		<path fill="#000032" d="M729.9062,151.2344c0,2.8438-0.75,5.0684-2.25,6.6719c-1.5,1.6045-3.5889,2.4062-6.2656,2.4062
			c-1.6777,0-3.1562-0.3672-4.4375-1.1016s-2.2656-1.7891-2.9531-3.1641s-1.0312-2.9785-1.0312-4.8125
			c0-2.8535,0.7441-5.0723,2.2344-6.6562c1.4893-1.583,3.583-2.375,6.2812-2.375c1.6768,0,3.1562,0.3652,4.4375,1.0938
			c1.2812,0.7295,2.2656,1.7764,2.9531,3.1406C729.5625,147.8027,729.9062,149.4014,729.9062,151.2344z M717.8281,151.2344
			c0,1.7295,0.2832,3.0371,0.8516,3.9219c0.5674,0.8857,1.4922,1.3281,2.7734,1.3281c1.2705,0,2.1846-0.4395,2.7422-1.3203
			c0.5566-0.8799,0.8359-2.1895,0.8359-3.9297c0-1.7285-0.2812-3.0254-0.8438-3.8906c-0.5625-0.8643-1.4844-1.2969-2.7656-1.2969
			c-1.2715,0-2.1875,0.4297-2.75,1.2891S717.8281,149.4951,717.8281,151.2344z"/>
		<path fill="#000032" d="M746.0312,154.8125c0,1.792-0.623,3.1562-1.8672,4.0938c-1.2451,0.9375-3.1074,1.4062-5.5859,1.4062
			c-1.2715,0-2.3545-0.0859-3.25-0.2578c-0.8965-0.1719-1.7344-0.4238-2.5156-0.7578v-3.9375
			c0.8848,0.417,1.8828,0.7656,2.9922,1.0469s2.0859,0.4219,2.9297,0.4219c1.7285,0,2.5938-0.5,2.5938-1.5
			c0-0.375-0.1152-0.6797-0.3438-0.9141c-0.2295-0.2344-0.625-0.5-1.1875-0.7969s-1.3125-0.6426-2.25-1.0391
			c-1.3438-0.5625-2.3311-1.083-2.9609-1.5625c-0.6309-0.4785-1.0889-1.0283-1.375-1.6484
			c-0.2871-0.6191-0.4297-1.3828-0.4297-2.2891c0-1.5518,0.6016-2.752,1.8047-3.6016c1.2031-0.8486,2.9082-1.2734,5.1172-1.2734
			c2.1035,0,4.1504,0.459,6.1406,1.375l-1.4375,3.4375c-0.875-0.375-1.6934-0.6816-2.4531-0.9219
			c-0.7607-0.2393-1.5371-0.3594-2.3281-0.3594c-1.4062,0-2.1094,0.3809-2.1094,1.1406c0,0.4277,0.2266,0.7969,0.6797,1.1094
			s1.4453,0.7764,2.9766,1.3906c1.3643,0.5527,2.3643,1.0684,3,1.5469c0.6348,0.4795,1.1035,1.0312,1.4062,1.6562
			C745.8799,153.2031,746.0312,153.9482,746.0312,154.8125z"/>
		<path fill="#000032" d="M757.6562,160.3125c-2.8125,0-5.0107-0.7754-6.5938-2.3281c-1.584-1.5518-2.375-3.75-2.375-6.5938
			c0-2.9268,0.7314-5.1895,2.1953-6.7891c1.4629-1.5986,3.4863-2.3984,6.0703-2.3984c2.4688,0,4.3906,0.7031,5.7656,2.1094
			s2.0625,3.3496,2.0625,5.8281v2.3125h-11.2656c0.0518,1.3545,0.4531,2.4121,1.2031,3.1719
			c0.75,0.7607,1.8018,1.1406,3.1562,1.1406c1.0518,0,2.0469-0.1094,2.9844-0.3281s1.916-0.5674,2.9375-1.0469v3.6875
			c-0.834,0.417-1.7246,0.7266-2.6719,0.9297C760.1768,160.2109,759.0205,160.3125,757.6562,160.3125z M756.9844,145.5938
			c-1.0107,0-1.8027,0.3203-2.375,0.9609c-0.5732,0.6406-0.9014,1.5498-0.9844,2.7266h6.6875
			c-0.0215-1.1768-0.3281-2.0859-0.9219-2.7266S757.9941,145.5938,756.9844,145.5938z"/>
		<path fill="#000032" d="M788.0625,160l-0.9219-2.375h-0.125c-0.8027,1.0107-1.6279,1.7109-2.4766,2.1016
			c-0.8496,0.3906-1.9561,0.5859-3.3203,0.5859c-1.6777,0-2.998-0.4785-3.9609-1.4375c-0.9639-0.958-1.4453-2.3223-1.4453-4.0938
			c0-1.8535,0.6484-3.2207,1.9453-4.1016c1.2969-0.8799,3.252-1.3672,5.8672-1.4609l3.0312-0.0938v-0.7656
			c0-1.7705-0.9062-2.6562-2.7188-2.6562c-1.3965,0-3.0371,0.4219-4.9219,1.2656l-1.5781-3.2188
			c2.0098-1.0518,4.2393-1.5781,6.6875-1.5781c2.3438,0,4.1406,0.5107,5.3906,1.5312c1.25,1.0215,1.875,2.5732,1.875,4.6562V160
			H788.0625z M786.6562,151.9062l-1.8438,0.0625c-1.3857,0.042-2.417,0.292-3.0938,0.75c-0.6777,0.459-1.0156,1.1562-1.0156,2.0938
			c0,1.3438,0.7705,2.0156,2.3125,2.0156c1.1035,0,1.9863-0.3174,2.6484-0.9531c0.6611-0.6348,0.9922-1.4785,0.9922-2.5312V151.9062
			z"/>
		<path fill="#000032" d="M809.375,160h-4.7656v-24.3125h4.7656V160z"/>
		<path fill="#000032" d="M825.4688,160l-0.9219-2.375h-0.125c-0.8027,1.0107-1.6279,1.7109-2.4766,2.1016
			c-0.8496,0.3906-1.9561,0.5859-3.3203,0.5859c-1.6777,0-2.998-0.4785-3.9609-1.4375c-0.9639-0.958-1.4453-2.3223-1.4453-4.0938
			c0-1.8535,0.6484-3.2207,1.9453-4.1016c1.2969-0.8799,3.252-1.3672,5.8672-1.4609l3.0312-0.0938v-0.7656
			c0-1.7705-0.9062-2.6562-2.7188-2.6562c-1.3965,0-3.0371,0.4219-4.9219,1.2656l-1.5781-3.2188
			c2.0098-1.0518,4.2393-1.5781,6.6875-1.5781c2.3438,0,4.1406,0.5107,5.3906,1.5312c1.25,1.0215,1.875,2.5732,1.875,4.6562V160
			H825.4688z M824.0625,151.9062l-1.8438,0.0625c-1.3857,0.042-2.417,0.292-3.0938,0.75c-0.6777,0.459-1.0156,1.1562-1.0156,2.0938
			c0,1.3438,0.7705,2.0156,2.3125,2.0156c1.1035,0,1.9863-0.3174,2.6484-0.9531c0.6611-0.6348,0.9922-1.4785,0.9922-2.5312V151.9062
			z"/>
		<path fill="#000032" d="M849.8281,160h-4.7656v-10.2031c0-1.2598-0.2246-2.2051-0.6719-2.8359
			c-0.4482-0.6299-1.1621-0.9453-2.1406-0.9453c-1.334,0-2.2969,0.4453-2.8906,1.3359s-0.8906,2.3672-0.8906,4.4297V160h-4.7656
			v-17.4688h3.6406l0.6406,2.2344h0.2656c0.5312-0.8438,1.2627-1.4814,2.1953-1.9141c0.9316-0.4316,1.9922-0.6484,3.1797-0.6484
			c2.0312,0,3.5723,0.5498,4.625,1.6484c1.0518,1.0996,1.5781,2.6855,1.5781,4.7578V160z"/>
		<path fill="#000032" d="M870,160.0312c0,2.5098-0.7324,4.4141-2.1953,5.7109c-1.4639,1.2969-3.6436,1.9453-6.5391,1.9453
			c-2.5527,0-4.7295-0.3438-6.5312-1.0312v-3.8125c2.1143,0.8955,4.3848,1.3438,6.8125,1.3438c2.4473,0,3.6719-1.3232,3.6719-3.9688
			v-0.3438l0.1406-2.1406h-0.1406c-1.1152,1.7188-2.7656,2.5781-4.9531,2.5781c-2.0938,0-3.7168-0.8066-4.8672-2.4219
			c-1.1514-1.6143-1.7266-3.8125-1.7266-6.5938c0-2.8643,0.5957-5.0957,1.7891-6.6953c1.1924-1.5986,2.8359-2.3984,4.9297-2.3984
			c2.1455,0,3.833,0.8545,5.0625,2.5625h0.125l0.3906-2.2344H870V160.0312z M861.9688,156.5781c1.2812,0,2.1973-0.3672,2.75-1.1016
			c0.5518-0.7344,0.8281-1.9238,0.8281-3.5703v-0.5781c0-1.8643-0.2891-3.2051-0.8672-4.0234
			c-0.5781-0.8174-1.5078-1.2266-2.7891-1.2266c-2.2402,0-3.3594,1.7607-3.3594,5.2812c0,1.75,0.2783,3.0576,0.8359,3.9219
			C859.9238,156.1465,860.791,156.5781,861.9688,156.5781z"/>
		<path fill="#000032" d="M887.3594,160l-0.6406-2.2344h-0.25c-0.5107,0.8125-1.2344,1.4404-2.1719,1.8828
			s-2.0059,0.6641-3.2031,0.6641c-2.0527,0-3.5996-0.5488-4.6406-1.6484c-1.042-1.0986-1.5625-2.6797-1.5625-4.7422v-11.3906h4.7656
			v10.2031c0,1.2607,0.2236,2.2061,0.6719,2.8359c0.4473,0.6309,1.1611,0.9453,2.1406,0.9453c1.333,0,2.2969-0.4453,2.8906-1.3359
			s0.8906-2.3672,0.8906-4.4297v-8.2188h4.7656V160H887.3594z"/>
		<path fill="#000032" d="M907.1094,160l-0.9219-2.375h-0.125c-0.8027,1.0107-1.6279,1.7109-2.4766,2.1016
			c-0.8496,0.3906-1.9561,0.5859-3.3203,0.5859c-1.6777,0-2.998-0.4785-3.9609-1.4375c-0.9639-0.958-1.4453-2.3223-1.4453-4.0938
			c0-1.8535,0.6484-3.2207,1.9453-4.1016c1.2969-0.8799,3.252-1.3672,5.8672-1.4609l3.0312-0.0938v-0.7656
			c0-1.7705-0.9062-2.6562-2.7188-2.6562c-1.3965,0-3.0371,0.4219-4.9219,1.2656l-1.5781-3.2188
			c2.0098-1.0518,4.2393-1.5781,6.6875-1.5781c2.3438,0,4.1406,0.5107,5.3906,1.5312c1.25,1.0215,1.875,2.5732,1.875,4.6562V160
			H907.1094z M905.7031,151.9062l-1.8438,0.0625c-1.3857,0.042-2.417,0.292-3.0938,0.75c-0.6777,0.459-1.0156,1.1562-1.0156,2.0938
			c0,1.3438,0.7705,2.0156,2.3125,2.0156c1.1035,0,1.9863-0.3174,2.6484-0.9531c0.6611-0.6348,0.9922-1.4785,0.9922-2.5312V151.9062
			z"/>
		<path fill="#000032" d="M930.6094,160.0312c0,2.5098-0.7324,4.4141-2.1953,5.7109c-1.4639,1.2969-3.6436,1.9453-6.5391,1.9453
			c-2.5527,0-4.7295-0.3438-6.5312-1.0312v-3.8125c2.1143,0.8955,4.3848,1.3438,6.8125,1.3438c2.4473,0,3.6719-1.3232,3.6719-3.9688
			v-0.3438l0.1406-2.1406h-0.1406c-1.1152,1.7188-2.7656,2.5781-4.9531,2.5781c-2.0938,0-3.7168-0.8066-4.8672-2.4219
			c-1.1514-1.6143-1.7266-3.8125-1.7266-6.5938c0-2.8643,0.5957-5.0957,1.7891-6.6953c1.1924-1.5986,2.8359-2.3984,4.9297-2.3984
			c2.1455,0,3.833,0.8545,5.0625,2.5625h0.125l0.3906-2.2344h4.0312V160.0312z M922.5781,156.5781
			c1.2812,0,2.1973-0.3672,2.75-1.1016c0.5518-0.7344,0.8281-1.9238,0.8281-3.5703v-0.5781c0-1.8643-0.2891-3.2051-0.8672-4.0234
			c-0.5781-0.8174-1.5078-1.2266-2.7891-1.2266c-2.2402,0-3.3594,1.7607-3.3594,5.2812c0,1.75,0.2783,3.0576,0.8359,3.9219
			C920.5332,156.1465,921.4004,156.5781,922.5781,156.5781z"/>
		<path fill="#000032" d="M943.5,160.3125c-2.8125,0-5.0107-0.7754-6.5938-2.3281c-1.584-1.5518-2.375-3.75-2.375-6.5938
			c0-2.9268,0.7314-5.1895,2.1953-6.7891c1.4629-1.5986,3.4863-2.3984,6.0703-2.3984c2.4688,0,4.3906,0.7031,5.7656,2.1094
			s2.0625,3.3496,2.0625,5.8281v2.3125h-11.2656c0.0518,1.3545,0.4531,2.4121,1.2031,3.1719
			c0.75,0.7607,1.8018,1.1406,3.1562,1.1406c1.0518,0,2.0469-0.1094,2.9844-0.3281s1.916-0.5674,2.9375-1.0469v3.6875
			c-0.834,0.417-1.7246,0.7266-2.6719,0.9297C946.0205,160.2109,944.8643,160.3125,943.5,160.3125z M942.8281,145.5938
			c-1.0107,0-1.8027,0.3203-2.375,0.9609c-0.5732,0.6406-0.9014,1.5498-0.9844,2.7266h6.6875
			c-0.0215-1.1768-0.3281-2.0859-0.9219-2.7266S943.8379,145.5938,942.8281,145.5938z"/>
		<path fill="#000032" d="M650.2969,163.2031v-1.5938H952v1.5938H650.2969z"/>
	</g>
	<g id="wRCUHh_9_">
		
			<image overflow="visible" width="190" height="100" id="wRCUHh_10_" xlink:href="74A87BCC62143D53.png"  transform="matrix(1 0 0 1 48 96)">
		</image>
	</g>
</g>
</svg>
