<?xml version="1.0" encoding="utf-8"?>
<!-- Generator: Adobe Illustrator 20.1.0, SVG Export Plug-In . SVG Version: 6.00 Build 0)  -->
<svg version="1.1" id="XMLID_1_" xmlns="http://www.w3.org/2000/svg" xmlns:xlink="http://www.w3.org/1999/xlink" x="0px" y="0px"
	 viewBox="0 0 1024 832" enable-background="new 0 0 1024 832" xml:space="preserve">
<g id="language-selection-iso-codes">
	<g>
		<path fill="#EAF0F0" d="M0,64V3c0-1.65,1.35-3,3-3h1018c1.65,0,3,1.35,3,3v61"/>
		<path fill="#808098" d="M144,22h-11c-1.6499,0-3.3274-1.3097-3.7275-2.9104l-2.5449-10.1792C126.3274,7.3097,124.6499,6,123,6H61
			c-1.6499,0-3.3274,1.3097-3.7275,2.9104l-2.5449,10.1792C54.3274,20.6903,52.6499,22,51,22H40H0v42h1024V22H144z"/>
		<path fill="#FFFFFF" d="M78,55c-1.65,0-3-1.35-3-3V34c0-1.65,1.35-3,3-3h913c1.65,0,3,1.35,3,3v18c0,1.65-1.35,3-3,3H78z"/>
		<circle fill="#E30074" cx="11" cy="11" r="5"/>
		<circle fill="#FF9600" cx="27" cy="11" r="5"/>
		<circle fill="#40B3FF" cx="43" cy="11" r="5"/>
		<polygon fill="#808098" points="144,12 141,12 141,9 139,9 139,12 136,12 136,14 139,14 139,17 141,17 141,14 144,14 		"/>
		<g>
			<polygon fill="#EAF0F0" points="91,49 81,49 81,37 87,37 91,41 			"/>
			<polygon fill="#808098" points="91,41 87,41 87,37 			"/>
		</g>
		<g>
			<rect x="1003" y="43" fill="#000032" width="12" height="2"/>
			<rect x="1003" y="38" fill="#000032" width="12" height="2"/>
			<rect x="1003" y="48" fill="#000032" width="12" height="2"/>
		</g>
		<path fill="#FFFFFF" d="M12,55c-1.65,0-3-1.35-3-3V34c0-1.65,1.35-3,3-3h18c1.65,0,3,1.35,3,3v18c0,1.65-1.35,3-3,3H12z"/>
		<g>
			<polygon fill="#000032" points="22.6465,48.3535 17.293,43 22.6465,37.6465 23.3535,38.3535 18.707,43 23.3535,47.6465 			"/>
		</g>
		<path fill="#FFFFFF" d="M63,55c1.65,0,3-1.35,3-3V34c0-1.65-1.35-3-3-3H45c-1.65,0-3,1.35-3,3v18c0,1.65,1.35,3,3,3H63z"/>
		<g>
			<polygon fill="#808098" points="52.3535,48.3535 51.6465,47.6465 56.293,43 51.6465,38.3535 52.3535,37.6465 57.707,43 			"/>
		</g>
	</g>
	<rect y="64" fill="#FFFFFF" width="1024" height="768"/>
	<g>
		<path fill="#E30074" d="M736.4375,148.3594c0,3.7607-1.0703,6.6406-3.2109,8.6406s-5.2324,3-9.2734,3h-6.4688v-22.8438h7.1719
			c3.7285,0,6.625,0.9844,8.6875,2.9531S736.4375,144.8281,736.4375,148.3594z M731.4062,148.4844c0-4.9062-2.167-7.3594-6.5-7.3594
			h-2.5781V156h2.0781C729.0723,156,731.4062,153.4951,731.4062,148.4844z"/>
		<path fill="#E30074" d="M754.3281,160h-13.1562v-22.8438h13.1562v3.9688h-8.3125v5.0156h7.7344v3.9688h-7.7344V156h8.3125V160z"/>
		<path fill="#808098" d="M788.7969,160h-4.7656v-22.8438h13.0938v3.9688h-8.3281v5.8906h7.75v3.9531h-7.75V160z"/>
		<path fill="#808098" d="M806.4375,151.2344V160h-4.8438v-22.8438h6.6562c3.1035,0,5.4004,0.5654,6.8906,1.6953
			c1.4893,1.1309,2.2344,2.8467,2.2344,5.1484c0,1.3438-0.3701,2.5391-1.1094,3.5859c-0.7402,1.0469-1.7871,1.8672-3.1406,2.4609
			L819.8438,160h-5.375l-5.4531-8.7656H806.4375z M806.4375,147.2969H808c1.5312,0,2.6611-0.2549,3.3906-0.7656
			c0.7285-0.5098,1.0938-1.3125,1.0938-2.4062c0-1.083-0.373-1.8535-1.1172-2.3125c-0.7451-0.458-1.8984-0.6875-3.4609-0.6875
			h-1.4688V147.2969z"/>
		<path fill="#E30074" d="M856.2031,160h-10.3906v-2.75l2.7812-1.2812v-14.7812l-2.7812-1.2812v-2.75h10.3906v2.75l-2.7812,1.2812
			v14.7812l2.7812,1.2812V160z"/>
		<path fill="#E30074" d="M868.9219,160h-4.8438v-18.8125h-6.2031v-4.0312h17.25v4.0312h-6.2031V160z"/>
		<path fill="#E30074" d="M908.4219,151.2344V160h-4.8438v-22.8438h6.6562c3.1035,0,5.4004,0.5654,6.8906,1.6953
			c1.4893,1.1309,2.2344,2.8467,2.2344,5.1484c0,1.3438-0.3701,2.5391-1.1094,3.5859c-0.7402,1.0469-1.7871,1.8672-3.1406,2.4609
			L921.8281,160h-5.375L911,151.2344H908.4219z M908.4219,147.2969h1.5625c1.5312,0,2.6611-0.2549,3.3906-0.7656
			c0.7285-0.5098,1.0938-1.3125,1.0938-2.4062c0-1.083-0.373-1.8535-1.1172-2.3125c-0.7451-0.458-1.8984-0.6875-3.4609-0.6875
			h-1.4688V147.2969z"/>
		<path fill="#E30074" d="M934.375,160l-5.5-17.9219h-0.1406c0.1973,3.6465,0.2969,6.0781,0.2969,7.2969V160h-4.3281v-22.8438
			h6.5938l5.4062,17.4688h0.0938l5.7344-17.4688h6.5938V160h-4.5156v-10.8125c0-0.5098,0.0078-1.0986,0.0234-1.7656
			c0.0156-0.666,0.0859-2.4375,0.2109-5.3125h-0.1406L938.8125,160H934.375z"/>
		<path fill="#E30074" d="M714.6094,163.2031v-1.5938h41.6094v1.5938H714.6094z"/>
		<path fill="#E30074" d="M844.7812,163.2031v-1.5938h30.9844v1.5938H844.7812z"/>
		<path fill="#E30074" d="M900.7031,163.2031v-1.5938H952v1.5938H900.7031z"/>
	</g>
	<g id="wRCUHh_11_">
		
			<image overflow="visible" width="190" height="100" id="wRCUHh_12_" xlink:href="1A7ABFB16CB78400.png"  transform="matrix(1 0 0 1 48 96)">
		</image>
	</g>
</g>
</svg>
