<?xml version="1.0" encoding="utf-8"?>
<!-- Generator: Adobe Illustrator 20.1.0, SVG Export Plug-In . SVG Version: 6.00 Build 0)  -->
<svg version="1.1" id="XMLID_2_" xmlns="http://www.w3.org/2000/svg" xmlns:xlink="http://www.w3.org/1999/xlink" x="0px" y="0px"
	 viewBox="0 0 552.3173 640" enable-background="new 0 0 552.3173 640" xml:space="preserve">
<g id="language-icon">
	<path fill-rule="evenodd" clip-rule="evenodd" fill="#000032" d="M406.7747,584.9325c-3.1761,1.6848-6.5699,4.1274-8.4354,5.132
		c-3.894,2.2906-8.0172,4.5812-11.6822,6.4137c-4.5813,2.2906-9.3916,4.8103-13.5147,6.6428
		c-3.4359,1.3744-7.101,2.9778-10.0787,4.3522c-3.665,1.3744-7.33,2.9778-10.7659,4.1231
		c-5.2684,1.8325-10.7659,3.665-15.5762,5.0394c-5.0394,1.6035-10.3078,2.7488-15.3472,3.8941
		c-6.8719,1.6034-13.9728,2.7487-20.3865,3.665c-8.0172,1.1453-15.5762,1.6035-23.5934,2.2906h-20.6156
		c-4.1231,0-24.5097-2.5197-25.1969-2.5197c-7.5591-1.1453-15.3472-2.5197-22.4481-4.1231
		c-12.8275-2.9778-25.655-6.8719-38.4825-11.6822c-9.3916-3.4359-19.2412-8.0172-27.9456-12.3694
		c-4.3522-2.0615-8.2462-4.1231-12.3694-6.6428c-1.3744-0.6872-8.7044-5.9556-12.3694-5.9556c-4.1231,0-6.6428,3.2068-6.6428,6.6428
		c0,2.0615,0.2291,3.894,2.9778,5.7265c15.5762,10.3079,32.0687,18.0959,47.874,24.0516
		c8.7044,3.4359,17.6378,6.6428,26.8003,9.1625c5.2684,1.6035,11.224,3.2069,16.7215,4.3522
		c7.1009,1.6035,14.66,2.9778,21.7609,4.1232c8.0172,1.1453,16.4925,2.0615,24.5097,2.7487h30.2362
		c6.6428,0,30.4653-3.665,32.7559-4.1231c4.3522-0.6872,8.7044-1.8325,13.0565-2.7488
		c11.4531-2.7487,24.2806-6.8718,35.9628-11.2241c8.9334-3.4359,18.325-7.559,27.4875-12.3693
		c4.5812-2.5197,9.8497-4.8103,14.2018-7.7881c2.1591-1.5593,5.6366-2.8677,8.4603-4.7139l14.3337,23.5817l19.7246-57.1671
		l-57.1305-4.3728L406.7747,584.9325z"/>
	<path fill-rule="evenodd" clip-rule="evenodd" fill="#000032" d="M120.4203,239.1113c7.33,0.2932,16.3757-1.8257,21.7472-4.0773
		c5.1974-2.2173,14.3049-6.8673,17.7523-13.6498c0.7307-1.45,2.7258-3.8849,1.4729-9.9001c-0.9506-4.627-3.8963-6.2465-7.4881-5.99
		c-3.5917,0.2428-14.4653,3.1428-19.7246,4.76c-5.2616,1.5965-16.0985,4.895-20.8218,5.9189
		c-4.7118,1.0216-15.0998-0.4742-16.7536-2.057c-1.4019-1.3767,1.8256,11.2492,6.3176,15.7915
		C110.8868,237.943,117.1081,238.9784,120.4203,239.1113z"/>
	<path fill-rule="evenodd" clip-rule="evenodd" fill="#000032" d="M66.467,442.4177c11.7624-7.2452,31.354-31.6335,37.6624-39.062
		c18.751-21.99,35.2252-45.0886,48.2886-64.9117h0.0137c2.5449,1.0606,23.1216,17.8257,28.4908,21.541
		c5.3692,3.7131,26.5575,15.535,31.1479,17.4957c4.5904,1.986,22.2328,10.12,22.9749,7.3667
		c0.7422-2.7762-3.1908-19.0076-5.273-19.7979c-2.0799-0.7559-45.1115-18.5815-51.2114-21.502
		c-4.9913-2.4006-17.2301-7.5751-22.9887-9.9253c16.2199-25.009,26.459-43.8814,27.8219-46.7562
		c2.522-5.2593,19.6902-38.8536,20.0911-40.922c0.3894-2.0959,0.8773-9.8382,0.4993-11.6776
		c-0.378-1.876-6.6726,1.7294-15.2189,4.627c-8.5601,2.8862-24.8281,13.4666-31.1113,14.7929
		c-6.3061,1.3148-26.459,8.9495-36.7714,12.3717s-29.8193,9.3755-37.8434,11.5424c-8.0355,2.1669-15.0494,2.3387-19.5436,3.7017
		c0,0,0.5979,6.2946,1.7913,8.1821c1.1797,1.8875,5.4311,6.5145,10.3742,7.8064c4.9432,1.3011,13.1253,0.7788,16.8521-0.0733
		c3.7246-0.8658,10.1773-4.0178,11.0431-5.3944c0.875-1.3996-0.4513-5.7105,1.0216-7.0139
		c1.4866-1.2896,21.1264-5.8801,28.5412-8.1203c7.4147-2.2791,35.7978-12.0555,39.6461-11.5562
		c-1.2186,4.0429-24.0493,49.2644-31.4021,62.7562c-7.3552,13.4895-50.0799,72.8372-59.176,83.2962
		c-6.9039,7.9507-23.6346,28.2961-29.4299,32.8865C54.219,444.4747,64.5795,443.586,66.467,442.4177z"/>
	<polygon fill-rule="evenodd" clip-rule="evenodd" fill="#000032" points="385.1499,323.4382 435.2344,338.6205 412.3923,257.592 	
		"/>
	<path fill-rule="evenodd" clip-rule="evenodd" fill="#000032" d="M279.286,86.5569l206.326-70.0644v135.7339l13.9728,4.4473V7.33
		c0-4.3522-3.2069-7.33-7.33-7.33c-3.2068,0-106.5139,35.5047-114.7602,38.4825c-28.0145,9.3382-95.1314,31.6478-108.8731,37.2952
		c-1.2983,0.3725-3.3088,0.9876-5.9474,1.8168L62.266,6.8627v137.1035C31.653,154.2156,9.8248,161.5516,8.7044,161.947
		c-2.0616,0.6872-5.2684,1.1453-7.1009,3.665c-0.9162,0.9162-1.1453,2.5197-1.6034,3.665v385.0536
		c0,0.4581,0.2291,0.6872,0.2291,0.9163c1.3744,2.9778,3.8941,4.8103,6.6428,4.8103c3.4359,0,261.3601-86.5855,267.0866-88.8762
		c0.2742-0.0914,0.5847-0.2931,0.8882-0.5451l277.4706,88.4386V173.4574L279.286,86.5569z M263.6507,460.1861L13.9728,543.3357
		V175.0036L263.6507,91.854V460.1861z M460.2205,429.9155l-13.1963-48.2016l-75.9067-23.007l-16.323,39.2659l-36.7415-11.1462
		l77.9911-191.393l35.7589,10.8324l65.1476,234.7934L460.2205,429.9155z"/>
</g>
</svg>
