<?xml version="1.0" encoding="utf-8"?>
<!-- Generator: Adobe Illustrator 20.1.0, SVG Export Plug-In . SVG Version: 6.00 Build 0)  -->
<svg version="1.1" id="XMLID_1_" xmlns="http://www.w3.org/2000/svg" xmlns:xlink="http://www.w3.org/1999/xlink" x="0px" y="0px"
	 viewBox="0 0 841.8887 270.5468" enable-background="new 0 0 841.8887 270.5468" xml:space="preserve">
<g id="logo-Antistatique-white">
	<g>
		<path fill="#FFFFFF" d="M399.9405,159.1503c-2.2783,0-4.4473-1.2089-4.4473-3.832v-34.2734h11.0195v-13.8262h-11.0195V85.2753
			l-16.0449,8.625v13.3184h-9.7031v13.8262h9.7031v37.5967c0,7.3095,4.581,15.1162,17.4375,15.1162
			c6.0478,0,10.0264-1.5948,10.0264-1.5948v-14.3427C406.9122,157.8203,402.461,159.1503,399.9405,159.1503z"/>
		<path fill="#FFFFFF" d="M261.4795,159.1503c-2.2783,0-4.4472-1.2089-4.4472-3.832v-34.2734h11.0185v-13.8262h-11.0185V85.2753
			l-16.0459,8.625v13.3184h-9.7012v13.8262h9.7012v37.5967c0,7.3095,4.582,15.1162,17.4384,15.1162
			c6.0489,0,10.0264-1.5948,10.0264-1.5948v-14.3427C268.4512,157.8203,264.001,159.1503,261.4795,159.1503z"/>
		<path fill="#FFFFFF" d="M197.8272,105.5917c-6.1748,0-13.8311,3.9375-17.2295,9.6026l-1.1221-8.0615h-14.3008v66.707h16.0059
			v-38.6006c0-9.0996,7.4971-14.7324,14.4492-14.7324c9.1133,0,12.3565,7.7969,12.3565,15.0976v38.2354h16V134.833
			C223.9864,115.9765,214.6963,105.5917,197.8272,105.5917z"/>
		<path fill="#FFFFFF" d="M682.1836,143.4648c0,9.1016-7.6904,14.7344-14.8115,14.7344c-7.6113,0-10.1816-3.8096-10.1816-15.1006
			v-35.8799h-15.9981v37.375c0,19.6816,7.9619,29.2461,24.3428,29.2461c6.6855,0,13.6641-3.0186,17.5996-8.9238l0.748,7.3838
			h14.3037v-65.0811h-16.003V143.4648z"/>
		<path fill="#FFFFFF" d="M518.7032,159.1503c-2.2784,0-4.4473-1.2089-4.4473-3.832v-34.2734h11.0186v-13.8262h-11.0186V85.2753
			l-16.0449,8.625v13.3184h-9.7041v13.8262h9.7041v37.5967c0,7.3095,4.582,15.1162,17.4375,15.1162
			c6.0478,0,10.0263-1.5948,10.0263-1.5948v-14.3427C525.6748,157.8203,521.2237,159.1503,518.7032,159.1503z"/>
		<rect x="280.6944" y="107.1328" fill="#FFFFFF" width="16.0029" height="66.707"/>
		<path fill="#FFFFFF" d="M288.6924,78.0068c-5.3476,0-9.6982,4.3515-9.6982,9.7012c0,5.3496,4.3506,9.7002,9.6982,9.7002
			c5.3516,0,9.7022-4.3506,9.7022-9.7002C298.3946,82.3583,294.044,78.0068,288.6924,78.0068z"/>
		<rect x="538.3565" y="107.1328" fill="#FFFFFF" width="16.0058" height="66.707"/>
		<path fill="#FFFFFF" d="M546.3584,78.0068c-5.3496,0-9.7011,4.3515-9.7011,9.7012c0,5.3496,4.3515,9.7002,9.7011,9.7002
			c5.3448,0,9.7032-4.3506,9.7032-9.7002C556.0616,82.3583,551.7032,78.0068,546.3584,78.0068z"/>
		<path fill="#FFFFFF" d="M771.1133,142.6464c0-11.1172-2.6318-20.2783-7.8633-26.8369
			c-5.0039-6.2754-12.3857-10.1894-22.2099-10.1894c-8.9649,0-17.1426,3.5498-23.0215,10.1084
			c-5.8125,6.4736-9.0146,15.415-9.0146,25.1777c0,21.9629,16.4033,34.4082,31.6738,34.4082
			c15.2685,0,25.0049-6.8027,28.6064-16.7334l-15.0722-4.3711c-2.5704,3.9766-6.2559,6.3389-13.5342,6.3389
			c-8.9658,0-14.3906-7.4424-14.7676-14.4707h45.0273C770.9375,146.0781,771.1133,143.9824,771.1133,142.6464z M726.2159,133.4179
			c1.0713-6.1943,4.9209-13.2773,14.4131-13.2773c9.5078,0,13.0947,6.3965,13.5742,13.2773H726.2159z"/>
		<path fill="#FFFFFF" d="M105.7383,81.2324L72.2032,173.708h17.5517l6.4356-18.6036h35.3144l6.5987,18.6036h18.7207
			l-33.6006-92.4756H105.7383z M101.4961,139.5449l12.3409-35.6192l12.1367,35.6192H101.4961z"/>
		<path fill="#FFFFFF" d="M305.9844,154.8427c1.9248,12.6192,13.0049,20.4668,28.667,20.4668
			c19.0606,0,28.2315-8.6133,28.2315-20.2178c0-12.1894-8.4795-17.9941-21.8789-21.6093
			c-14.3917-3.8828-16.4844-5.1514-16.4844-8.4395c0-2.2285,2.2783-5.6806,9.0752-5.6806c7.3584,0,11.208,3.3994,12.4531,7.5888
			l15.6523-2.6924c-3.1015-11.3359-12.8173-18.6054-28.1054-18.6054c-14.2432,0-24.958,9.1689-24.958,19.956
			c0,11.2696,7.165,16.166,20.8828,19.5703c14.1728,3.5147,17.5947,6.1592,17.5947,9.3399c0,3.6855-3.7021,6.3594-11.959,6.3594
			c-6.8183,0-11.9629-3.3868-12.916-8.9229L305.9844,154.8427z"/>
		<path fill="#FFFFFF" d="M613.0372,114.9736c-2.6758-5.0938-8.9795-9.3535-16.7344-9.3535
			c-17.5996,0-30.8721,15.1445-30.8721,35.2324c0,19.9717,12.6777,34.4658,30.1484,34.4658c6.9747,0,14.1563-4.2637,16.8331-10.4717
			v35.1475h16.0029v-92.7754h-14.291L613.0372,114.9736z M597.2706,160.3994c-8.8243,0-15.9835-8.9522-15.9835-20.003
			c0-11.0439,7.1591-20.0019,15.9835-20.0019c8.8329,0,15.9921,8.958,15.9921,20.0019
			C613.2627,151.4472,606.1036,160.3994,597.2706,160.3994z"/>
		<path fill="#FFFFFF" d="M480.8184,159.1503c-1.7891,0-3.2812-1.0517-3.2812-2.998v-48.9336h-14.2891l-1.0029,7.7754
			c-3.2754-6.0684-9.9981-9.374-16.8145-9.374c-17.6035,0-30.8799,15.1445-30.8799,35.2324
			c0,19.9717,12.6807,34.4658,30.1494,34.4658c7.7832,0,15.8672-5.3096,18.125-10.7197c0.0821,4.6181,4.2735,9.1377,12.3584,9.1377
			c5.8204,0,10.8897-1.5733,10.8897-1.5733v-14.3427C486.0733,157.8203,482.8155,159.1503,480.8184,159.1503z M446.3956,160.3994
			c-8.8272,0-15.9883-8.9522-15.9883-20.003c0-11.0439,7.1611-20.0019,15.9883-20.0019c8.832,0,15.9873,8.958,15.9873,20.0019
			C462.3829,151.4472,455.2276,160.3994,446.3956,160.3994z"/>
	</g>
	<rect fill="none" width="841.8887" height="270.5468"/>
</g>
</svg>
