<?xml version="1.0" encoding="utf-8"?>
<!-- Generator: Adobe Illustrator 20.1.0, SVG Export Plug-In . SVG Version: 6.00 Build 0)  -->
<svg version="1.1" id="XMLID_2_" xmlns="http://www.w3.org/2000/svg" xmlns:xlink="http://www.w3.org/1999/xlink" x="0px" y="0px"
	 viewBox="0 0 512 512" enable-background="new 0 0 512 512" xml:space="preserve">
<g id="UWW">
	<path fill="#404065" d="M191.4179,371.5183c0.4622,0,0.837-0.3732,0.8386-0.8354v-11.6536l-0.216-3.5674h0.1223l7.1078,16.0581
		h2.5112c0.0016,0,0.0016-0.0017,0.0032-0.0017c0.4575,0,0.8291-0.3636,0.8402-0.8179v-20.9313h-2.2014
		c-0.0016,0-0.0032,0.0016-0.0048,0.0016c-0.4638,0-0.8386,0.3749-0.8386,0.8372c0,0.0078,0,0.0159-0.0032,0.0237v11.5664
		l0.1858,3.6913h-0.1223l-7.0157-16.1201h-2.6033c-0.0032,0-0.0047,0.0016-0.0063,0.0016c-0.4479,0-0.8132,0.3527-0.8354,0.7942
		V371.52h2.2332C191.4147,371.52,191.4163,371.5183,191.4179,371.5183z"/>
	<path fill="#404065" d="M186.3002,379.8875h-5.645l-3.7643,21.5854l-0.8094,5.3542l-0.9457-4.8523l-4.5634-20.696
		c-0.0032-0.0095-0.0079-0.019-0.0111-0.0317c-0.1667-0.7307-0.6083-1.3596-1.3596-1.3596h-6.5662l2.4095,8.9851l-4.8174,17.9595
		l-0.6528-5.0081l-2.6287-20.5055c-0.0063-0.0222-0.008-0.0428-0.008-0.0714l-0.0015-0.0095l-0.0413-0.3162
		c-0.1462-0.5925-0.6798-1.0339-1.3184-1.0339h-6.3423l5.6721,35.4867h8.0815c0.7195-0.0302,1.1642-0.6449,1.3422-1.3533
		l0.0015-0.0048l2.8718-11.4885l0.8529-3.9629l-0.1509,0.7036l1.4247,5.7085l2.4159,10.3973h7.8448
		c0.7179-0.0302,1.1642-0.6449,1.3421-1.3533c0.0016-0.0048,0.0016-0.0079,0.0032-0.0095l6.7219-32.7787
		C187.6503,380.4894,187.0468,379.8875,186.3002,379.8875z"/>
	<path fill="#404065" d="M205.8735,350.5999V371.52h2.2363c0.0016,0,0.0032-0.0017,0.0048-0.0017
		c0.4337,0,0.791-0.3271,0.8355-0.7512v-20.9979h-2.2427C206.2483,349.7725,205.8782,350.1409,205.8735,350.5999z"/>
	<path fill="#404065" d="M173.4045,349.7692c-0.4479,0.016-0.8085,0.3844-0.8085,0.8387l-0.0016,0.0032v13.1577
		c0,6.5503,3.5087,8.1514,6.8617,8.1514c3.1687,0,6.7679-1.7852,6.7679-8.9216v-13.2294h-2.1618
		c-0.4542,0.0096-0.8212,0.3812-0.8227,0.837v12.5464c0,4.5522-1.6932,6.0293-3.7834,6.0293c-2.0617,0-3.7549-1.2913-3.7549-5.3209
		v-14.0918H173.4045z"/>
	<path fill="#404065" d="M282.6651,360.5985c0,6.8918,2.7701,11.2916,8.0307,11.2916c5.3829,0,8.4595-4.368,8.4595-11.2297
		c0-6.3994-2.5525-11.1993-8.0291-11.1993C285.9578,349.4611,282.6651,353.6464,282.6651,360.5985z M295.9866,360.6304
		c0,4.9207-1.5073,8.5515-5.1065,8.5515c-3.3546,0-5.1066-3.7532-5.1066-8.6135c0-4.8302,1.6296-8.4612,5.0462-8.4612
		C294.1409,352.1072,295.9866,355.5524,295.9866,360.6304z"/>
	<polygon fill="#404065" points="235.0195,352.4757 236.0218,349.7692 226.244,349.7692 226.244,371.52 235.5088,371.52 
		236.519,368.7849 236.519,368.7817 229.3206,368.7817 229.3206,361.8914 234.6097,361.8914 235.5643,359.3057 229.3206,359.3057 
		229.3206,352.4757 	"/>
	<path fill="#404065" d="M266.0367,367.5698h-0.1223l-0.4003-2.3254l-2.589-14.8065c-0.0794-0.3812-0.4177-0.6654-0.8228-0.6654
		c-0.0079,0-0.0127-0.0017-0.019-0.0033h-2.4143l4.1535,21.7509h3.1672c0.0032,0,0.0032-0.0017,0.0063-0.0017
		c0.3892,0,0.7211-0.2637,0.8148-0.6257l2.5032-9.0615l0.5226-1.8281h0.0921l0.4305,1.8884l2.3079,9.6287h3.1116
		c0.0016,0,0.0032-0.0017,0.0048-0.0017c0.3732,0,0.6925-0.2397,0.8005-0.5781l4.6872-20.3276c0,0,0-0.0032,0.0016-0.0046
		c0.1032-0.4623-0.3765-0.8387-0.8403-0.8387h-1.9505l-3.4149,15.4133l-0.432,2.3873h-0.1223l-0.5527-2.2333l-3.5309-14.8892
		l-0.0032-0.0063c-0.0811-0.3844-0.4194-0.6686-0.8228-0.6686c-0.0063,0-0.0127-0.0017-0.019-0.0033h-2.4222l1.4136,5.4767
		l-2.8622,9.9985L266.0367,367.5698z"/>
	<path fill="#404065" d="M239.5511,349.7692c-0.4622,0-0.8386,0.3765-0.8386,0.8387v20.0798
		c0.0032,0.459,0.3764,0.8306,0.8354,0.8323h4.1805c5.5068,0,8.9519-3.4133,8.9519-10.9517c0-7.1698-3.785-10.7992-9.0758-10.7992
		H239.5511z M249.6038,360.905c0,5.1082-2.0315,7.8767-5.6307,7.8767h-2.2142v-16.2759h1.7853
		C247.2974,352.5059,249.6038,355.3379,249.6038,360.905z"/>
	<path fill="#404065" d="M318.0169,349.7692c-0.4575,0-0.8307,0.3685-0.8386,0.8259V371.52h8.7486l1.0356-2.7987h-6.706v-18.9521
		H318.0169z"/>
	<path fill="#404065" d="M304.1364,379.8921c-0.7084,0-1.2929,0.5449-1.3533,1.2405v34.2416h6.2089c0.0048,0,0.0079,0,0.0127,0
		c0.7481,0,1.3564-0.6051,1.3596-1.3517v-34.135h-6.1913C304.1602,379.8889,304.1507,379.8921,304.1364,379.8921z"/>
	<path fill="#404065" d="M332.7615,379.8921c-0.7513,0-1.3596,0.6084-1.3596,1.3582c0,0.0127-0.0016,0.0205-0.0016,0.0317v12.8132
		l0.1,6.223l-8.6851-20.4308h-6.7854c-0.0111,0.0015-0.0206,0.0046-0.035,0.0046c-0.7497,0-1.3596,0.6084-1.3596,1.3582
		c0,0.0095,0,0.0142-0.0016,0.0222v34.1017h6.2136c0.0032,0,0.0063,0,0.0127,0c0.71,0,1.2929-0.5448,1.3517-1.2405v-13.7155
		l-0.0984-6.2246l9.3871,21.1805h6.1088c0.0048,0,0.008,0,0.0127,0c0.7322,0,1.3263-0.5781,1.3564-1.3024v-34.1843h-6.1818
		C332.7838,379.8889,332.7742,379.8921,332.7615,379.8921z"/>
	<path fill="#404065" d="M312.1988,366.1975l-2.1824-3.9694c1.8456-1.1356,2.7971-3.3212,2.7971-5.7212
		c0-4.584-2.338-6.7378-5.6895-6.7378h-4.7936c-0.459,0-0.8323,0.3717-0.8387,0.8307V371.52h2.2332
		c0.0016,0,0.0032-0.0017,0.0048-0.0017c0.4622,0,0.8387-0.3748,0.8387-0.8386c0-0.0046,0-0.0127,0-0.0173v-7.3859h1.1706
		c0.5527,0,1.1071,0,1.4772-0.0938l2.4,4.7999c1.2564,2.5144,3.2371,3.6675,4.9636,3.882l0.9006-2.4429
		C313.7967,368.5322,312.9041,367.457,312.1988,366.1975z M306.1377,360.6907h-1.5693v-8.1848h2.0934
		c2.0299,0,2.9543,1.385,2.9543,4.1552C309.6161,359.3977,308.3232,360.6907,306.1377,360.6907z"/>
	<path fill="#404065" d="M333.5144,349.7692h-4.0519c-0.4638,0-0.8402,0.3765-0.8402,0.8387v20.0798
		c0.0032,0.459,0.3764,0.8306,0.837,0.8323h4.179c5.5068,0,8.9519-3.4133,8.9519-10.9517
		C342.5902,353.3986,338.8052,349.7692,333.5144,349.7692z M333.8845,368.7817h-2.2158v-16.2759h1.7838
		c3.7548,0,6.0612,2.832,6.0612,8.3992C339.5136,366.0132,337.4837,368.7817,333.8845,368.7817z"/>
	<path fill="#404065" d="M358.6229,408.8524h-0.953c-5.07,0-7.6304-4.4188-7.6304-11.4948c0-6.8284,2.3095-10.9946,6.876-10.9946
		c2.3142,0,3.6055,0.2573,5.8689,1.0198c0.6655,0.162,1.3597-0.1986,1.5995-0.8562c0.0032-0.0095,0.0079-0.0159,0.0127-0.0237
		l1.2532-4.708c-2.6097-1.3055-5.0192-2.3079-8.7343-2.3079c-8.6835,0-14.6064,7.5272-14.6064,18.3708
		c0,11.4933,4.9699,18.0198,14.7081,18.0198c2.8669,0,5.0779-0.5131,7.597-1.5963c0.6846-0.3478,1.3327-0.5829,1.3327-1.59
		c0-0.0175,0.0031-0.0317,0.0047-0.046v-13.7328h-7.3286V408.8524z"/>
	<path fill="#404065" d="M209.4726,404.4845l-2.8113-3.766c2.4603-1.8552,4.2679-5.2192,4.2679-8.9836
		c0-8.0322-4.468-11.8474-10.5419-11.8474h-9.1441c-0.0127,0.0015-0.0238,0.0046-0.0365,0.0046c-0.7497,0-1.358,0.6068-1.3612,1.355
		v34.1271h6.2549c0.0063,0,0.0095,0,0.0143,0c0.7497,0,1.3596-0.6083,1.3596-1.358c0-0.0127,0.0016-0.019,0.0016-0.0286v-10.8595
		h2.4587l2.5112,4.6189c2.2507,4.109,5.934,7.7909,11.0469,8.2531l2.2062-5.9738
		C212.419,408.0297,210.7719,406.2333,209.4726,404.4845z M198.7815,397.1558h-1.3056V386.614h2.1569
		c2.7129,0,3.4658,2.2585,3.4658,5.321C203.0986,394.7463,201.9931,397.1558,198.7815,397.1558z"/>
	<path fill="#404065" d="M218.3197,371.52c0.4225-0.0413,0.7529-0.3939,0.756-0.8276v-18.1531h4.3346
		c0.4464-0.0222,0.8021-0.3877,0.8021-0.8386c0-0.0063,0-0.0112,0.0016-0.0159v-1.9156h-12.3367l-1.015,2.7479v0.0222h5.1367V371.52
		H218.3197z"/>
	<path fill="#404065" d="M224.6715,400.6692h6.7933l2.2999-6.2246h-9.0933v-7.8813h8.4691l2.4683-6.6758h-17.1287
		c-0.0111,0.0015-0.0206,0.0046-0.0349,0.0046c-0.7068,0-1.2866,0.5386-1.3533,1.2278v34.2543h16.425l2.4476-6.6249V408.7h-11.2931
		V400.6692z"/>
	<path fill="#404065" d="M256.6481,386.5632h7.4223v28.8109h6.2517c0.0048,0,0.0079,0,0.0127,0c0.7513,0,1.3596-0.6083,1.3596-1.358
		c0-0.0238,0.0032-0.0444,0.0063-0.0635v-27.3894h6.4535c0.019-0.0032,0.0397-0.0032,0.0651-0.0032
		c0.7513,0,1.3596-0.6116,1.3596-1.3628c0-0.0081,0-0.0176,0.0016-0.0286v-5.2812h-20.4658L256.6481,386.5632z"/>
	<path fill="#404065" d="M289.3346,379.8875h-6.185c-0.0112,0.0015-0.0207,0.0046-0.035,0.0046c-0.7497,0-1.3564,0.6068-1.358,1.355
		v34.1271h16.2853l2.4858-6.7235h-11.1931V379.8875z"/>
	<path fill="#404065" d="M244.6783,389.5413c0-1.5056,0.7545-3.3132,3.0639-3.3132c2.0426,0,3.183,0.2542,5.1351,0.8513
		c0.6576,0.1589,1.3438-0.1937,1.5883-0.8401l1.7091-4.5286c-3.8661-2.0076-5.9738-2.2585-8.9853-2.2585
		c-4.1154,0-10.0399,3.2133-10.0399,9.9382c0,10.8438,12.2985,10.391,12.2985,15.361c0,1.455-0.8545,4.0153-3.7643,4.0153
		c-2.2047,0-3.7278-0.3208-5.9007-1.2373c-0.0096-0.0032-0.0191-0.0048-0.0318-0.0095c-0.7052-0.2556-1.4851,0.108-1.7424,0.8132
		c-0.0095,0.0271-0.0207,0.0476-0.0318,0.0635l-1.6296,4.4363c2.5096,1.8059,5.1685,2.9623,9.4363,2.9623
		c5.1208,0,11.3948-3.3641,11.3948-11.1454C257.1785,394.7129,244.6783,393.5582,244.6783,389.5413z"/>
	<path fill="#404065" d="M256,328.0286c64.0723,0,116.0127-51.9404,116.0127-116.0159C372.0127,147.9388,320.0723,96,256,96
		c-64.0738,0-116.0127,51.9388-116.0127,116.0127C139.9873,276.0881,191.9262,328.0286,256,328.0286z M255.9992,122.2798
		c49.5595,0,89.7351,40.1755,89.7351,89.7335c0,49.5596-40.1756,89.7351-89.7351,89.7351
		c-49.5579,0-89.7335-40.1755-89.7335-89.7351C166.2657,162.4553,206.4413,122.2798,255.9992,122.2798z"/>
	<polygon fill="#404065" points="316.3898,251.2849 317.7637,251.2849 317.7637,256.3533 318.5865,256.3533 318.5865,251.2849 
		319.9572,251.2849 319.9572,250.5463 316.3898,250.5463 	"/>
	<polygon fill="#404065" points="322.7972,255.4336 322.7734,255.4336 321.606,250.5463 320.4988,250.5463 320.4988,256.3533 
		321.32,256.3533 321.32,253.1162 321.2534,252.0361 321.2899,252.0361 322.3159,256.3533 323.2181,256.3533 324.3109,252.025 
		324.3506,252.025 324.2935,253.0415 324.2935,256.3533 325.1146,256.3533 325.1146,250.5463 324.0583,250.5463 	"/>
	<path fill="#404065" d="M206.8408,241.2938c3.1719,0.0636,4.1805,3.6897,3.2259,5.3972c-1.4454,2.5969-9.3649,0.756-11.0739,5.0604
		c-1.385,3.4912,3.2498,6.1898,6.5408,5.5862c4.4457-0.8132,4.0757-3.9185,16.0264-8.9011
		c9.1012-3.7944,12.8608-16.6077,9.7635-28.5361c0,0-16.4266-0.7593-25.3913-10.3068c-6.752-7.1936-18.6281-8.0927-24.1428-8.0927
		c-1.8393,0-2.9702,0.1001-2.9702,0.1001c11.0421,5.5132,20.8931,11.7427,21.7825,14.6509c0.9975,3.2577-1.007,3.0291-4.09,2.7987
		c-1.6185-0.1207-3.534-0.2399-5.4702,0.1445c-6.9824,1.3851-5.1573,9.4713-0.44,9.9128c1.4359,0.135,3.3514-0.5131,5.2781-1.1595
		c3.8708-1.3008,7.7797-2.6033,7.8798,2.4478c0.0794,4.0598-15.7358,6.1611-16.5823,18.5376
		c-0.0413,0.5924,2.446-1.5901,6.347-3.7739C197.0709,243.176,201.7882,241.1906,206.8408,241.2938z"/>
	<path fill="#404065" d="M225.2973,172.3882c9.5968,1.9966,23.7474,12.1049,27.2672,21.1409
		c1.6058-10.0923-7.5923-22.0668-18.0484-26.8159c-7.856-3.9932-3.3212-13.5042-9.727-15.9153
		c-0.3145-0.116-0.6465-0.1715-0.9864-0.1715c-2.1729,0-4.6475,2.2491-4.2996,4.6984c0.4003,2.8162,4.8794,7.1873,4.5872,8.0942
		c-1.1214,3.4832-12.3748-1.6042-17.1002-12.3225C206.9901,151.0964,204.9379,168.1584,225.2973,172.3882z"/>
	<path fill="#404065" d="M194.215,189.4597c2.4079,0.9387,11.1517,3.0957,14.079,7.1285
		c6.8331,9.4078,15.1163,16.8047,35.8918,10.3307c8.9869-2.8003,16.4791-7.9927,16.4791-7.9927s6.6901-8.6248,12.3732-3.318
		c1.7567,1.6392,2.2253,5.9945-1.0007,9.0758c-3.2244,3.0813-7.3334,2.0854-8.55-0.0571c-0.305-0.5369-2.2507,0.2064-3.38,4.0963
		c-1.1293,3.8929-2.724,13.3357,8.0958,22.0636c1.5153,1.2214-13.7884-0.8704-16.5283-15.4625
		c-2.6986,1.9902-8.3849,3.6454-12.3574,4.1266c3.5452,8.4261,4.5109,26.6063-6.6234,36.9497
		c-9.1552,8.5055-11.0644,17.5876-13.0832,24.7622c12.0571-14.9209,18.3375-15.5975,19.3174-14.8511
		c2.705,2.0537,0.3685,5.4592-0.216,6.6504c-1.5661,3.1895-0.926,7.2731,3.2625,7.8195c3.1005,0.4066,5.3448-3.6198,4.4521-7.5699
		c-1.5502-6.8458,5.1876-7.0603,4.7206-3.6628c-1.2723,9.2522,4.7078,16.8237,9.9859,20.4658
		c-3.1815-7.2555-4.252-19.7668,1.5439-21.8667c5.5529-2.0109,1.5582,8.709,3.6166,11.3535c0.9022,1.158,3.704,1.9934,5.6212,0.7798
		c4.1583-2.6334-2.7462-14.052,0.3796-14.8383c5.6561-1.1451,1.9155,10.4562,15.3418,18.0277
		c-2.5477-7.678-6.5265-19.4524-3.0099-21.8572c2.7796-1.3215,3.3387,4.1726,6.204,6.5471c4.4902,3.7231,10.85-2.4667,6.9188-5.0461
		c-4.3155-2.832-7.5716-6.5043-6.7647-8.2848c2.3253-5.1399,10.8436,0.1826,18.3708,14.2108
		c2.9511-12.7257-5.5084-21.0503-14.5667-25.2769c-6.2184-2.8987-12.4193-10.437-13.7519-11.8204
		c-5.2241-5.421-7.2985-3.1608-16.738-8.9233c-1.852-2.0331-3.3832-11.6234-0.6432-15.2052
		c5.3749,6.196,25.2769,7.8782,24.2143,5.1653c-2.3587-6.0151,7.7432-6.6472,10.9278-2.3237
		c3.2482,4.4092,1.0959,9.5094-6.822,8.7263c-5.0891-0.5066-5.1002,2.2825-4.9874,3.5642
		c0.5083,5.8308,7.8195,11.4885,12.5273,13.9648c9.843,5.1748,22.6053,3.6453,29.6686,2.0298
		c-4.9429-1.6788-9.5872-2.9495-14.176-5.8291c-8.7422-5.4846-7.4224-8.126-6.2073-9.9128c1.2087-1.79,5.4766-1.9188,10.491-0.0334
		c4.4823,1.6869,7.4843-1.6201,8.1435-4.927c0.6559-3.2942-1.0102-6.5869-5.8483-4.9492
		c-4.3076,1.4596-10.1686,2.2554-10.7833-2.5081c0.1223-8.5469,17.0446-4.5173,19.9988-19.2015
		c-7.1984,6.733-20.3737,7.6527-23.2534,3.9694c-2.0569-2.6383,1.4994-4.7222,5.9833-4.6111
		c4.152,0.0985,6.0325-2.4841,6.0754-5.0652c0.0572-3.1354-2.589-6.2692-7.1523-4.6125c-5.2448,1.9044-7.4986,7.3254-9.3157,6.4741
		c-3.2307-1.5168-1.7726-16.125,12.4066-26.0282c-7.1777-1.131-11.9301,2.454-15.4037,6.0372
		c-3.7009,3.8201-5.9531,7.6399-8.1482,5.7531c-3.8549-3.3148-1.1929-10.3624,2.5811-13.798
		c4.9095-4.4617-3.3483-12.845-8.4278-4.5093c-3.0051,4.9349,0.1525,11.9316-4.2774,11.6567
		c-5.8006-0.3573,5.2479-22.3782-9.9208-31.2141c4.3854,9.7191,2.9845,26.3062-5.2288,23.7395
		c-5.4052-1.6901-2.3063-5.7435-1.0785-10.6578c1.9965-8.0529-9.4109-7.7543-8.9059-1.6185
		c0.5004,6.1405,1.3676,10.8325-1.925,11.0627c-4.9636,0.3479-8.4039-12.1587-1.0531-23.9125
		c-13.8185,5.286-13.007,23.9872-7.2142,28.5345c8.4008,6.5933,16.0105,19.5383,14.2665,31.9067
		c-3.9645,5.9087-13.2452,8.8169-13.2452,8.8169c-0.2955-4.3743-8.3849-21.719-30.1944-23.4376
		c-18.3073-1.4437-22.0336-16.9874-22.0336-16.9874c-0.8831,4.3284-2.5143,13.8552,10.9945,19.4336
		c2.7431,1.134-1.0721,4.8396-5.3431,1.1912C193.0651,176.9325,187.2247,186.7295,194.215,189.4597z"/>
	<rect fill="none" width="512" height="512"/>
</g>
</svg>
